<mxfile host="Electron" modified="2024-06-02T16:20:20.226Z" agent="Mozilla/5.0 (Windows NT 10.0; Win64; x64) AppleWebKit/537.36 (KHTML, like Gecko) draw.io/24.4.0 Chrome/120.0.6099.109 Electron/28.1.0 Safari/537.36" etag="9rbMuqwOU_wkvDjuwShN" version="24.4.0" type="device">
  <diagram id="WLaCd2MpMb73AHYVR0f1" name="Page-1">
    <mxGraphModel dx="5240" dy="2813" grid="1" gridSize="10" guides="1" tooltips="1" connect="1" arrows="1" fold="1" page="1" pageScale="1" pageWidth="4681" pageHeight="3300" math="0" shadow="0">
      <root>
        <mxCell id="0" />
        <mxCell id="1" parent="0" />
        <mxCell id="ML1fYuCT1PsFsiq06-86-186" value="" style="rounded=0;whiteSpace=wrap;html=1;" parent="1" vertex="1">
          <mxGeometry x="3039" y="1302" width="880" height="757" as="geometry" />
        </mxCell>
        <mxCell id="hlPLC92axH5KbFpEZ22y-19" value="" style="ellipse;whiteSpace=wrap;html=1;rotation=-90;movable=1;resizable=1;rotatable=1;deletable=1;editable=1;locked=0;connectable=1;fillColor=none;gradientColor=none;fillStyle=solid;" parent="1" vertex="1">
          <mxGeometry x="3509.66" y="1519.97" width="542.28" height="252.06" as="geometry" />
        </mxCell>
        <mxCell id="ML1fYuCT1PsFsiq06-86-135" value="" style="rounded=0;whiteSpace=wrap;html=1;" parent="1" vertex="1">
          <mxGeometry x="629" y="1349" width="800" height="550" as="geometry" />
        </mxCell>
        <mxCell id="ML1fYuCT1PsFsiq06-86-103" value="" style="rounded=0;whiteSpace=wrap;html=1;" parent="1" vertex="1">
          <mxGeometry x="1799" y="2118" width="840" height="411" as="geometry" />
        </mxCell>
        <mxCell id="ML1fYuCT1PsFsiq06-86-88" value="" style="rounded=0;whiteSpace=wrap;html=1;fillColor=none;" parent="1" vertex="1">
          <mxGeometry x="2969" y="1472.5" width="210" height="384.5" as="geometry" />
        </mxCell>
        <mxCell id="ML1fYuCT1PsFsiq06-86-3" value="" style="ellipse;shape=cloud;whiteSpace=wrap;html=1;movable=1;resizable=1;rotatable=1;deletable=1;editable=1;locked=0;connectable=1;" parent="1" vertex="1">
          <mxGeometry x="1686.5" y="1289" width="1072.5" height="630" as="geometry" />
        </mxCell>
        <mxCell id="ML1fYuCT1PsFsiq06-86-4" value="" style="shape=mxgraph.cisco.routers.router;sketch=0;html=1;pointerEvents=1;dashed=0;fillColor=#036897;strokeColor=#ffffff;strokeWidth=2;verticalLabelPosition=bottom;verticalAlign=top;align=center;outlineConnect=0;" parent="1" vertex="1">
          <mxGeometry x="2205.5" y="1386" width="78" height="53" as="geometry" />
        </mxCell>
        <mxCell id="ML1fYuCT1PsFsiq06-86-5" value="" style="shape=mxgraph.cisco.routers.router;sketch=0;html=1;pointerEvents=1;dashed=0;fillColor=#036897;strokeColor=#ffffff;strokeWidth=2;verticalLabelPosition=bottom;verticalAlign=top;align=center;outlineConnect=0;" parent="1" vertex="1">
          <mxGeometry x="2609" y="1597" width="78" height="53" as="geometry" />
        </mxCell>
        <mxCell id="ML1fYuCT1PsFsiq06-86-6" value="" style="shape=mxgraph.cisco.routers.router;sketch=0;html=1;pointerEvents=1;dashed=0;fillColor=#036897;strokeColor=#ffffff;strokeWidth=2;verticalLabelPosition=bottom;verticalAlign=top;align=center;outlineConnect=0;" parent="1" vertex="1">
          <mxGeometry x="2203.5" y="1604.5" width="78" height="53" as="geometry" />
        </mxCell>
        <mxCell id="ML1fYuCT1PsFsiq06-86-7" value="" style="shape=mxgraph.cisco.routers.router;sketch=0;html=1;pointerEvents=1;dashed=0;fillColor=#036897;strokeColor=#ffffff;strokeWidth=2;verticalLabelPosition=bottom;verticalAlign=top;align=center;outlineConnect=0;" parent="1" vertex="1">
          <mxGeometry x="1781" y="1601.75" width="78" height="53" as="geometry" />
        </mxCell>
        <mxCell id="ML1fYuCT1PsFsiq06-86-8" value="" style="shape=mxgraph.cisco.routers.router;sketch=0;html=1;pointerEvents=1;dashed=0;fillColor=#036897;strokeColor=#ffffff;strokeWidth=2;verticalLabelPosition=bottom;verticalAlign=top;align=center;outlineConnect=0;" parent="1" vertex="1">
          <mxGeometry x="2203" y="1859" width="78" height="53" as="geometry" />
        </mxCell>
        <mxCell id="ML1fYuCT1PsFsiq06-86-11" value="&#xa;&lt;span style=&quot;color: rgb(0, 0, 0); font-family: Helvetica; font-size: 12px; font-style: normal; font-variant-ligatures: normal; font-variant-caps: normal; font-weight: 400; letter-spacing: normal; orphans: 2; text-align: center; text-indent: 0px; text-transform: none; widows: 2; word-spacing: 0px; -webkit-text-stroke-width: 0px; white-space: normal; background-color: rgb(251, 251, 251); text-decoration-thickness: initial; text-decoration-style: initial; text-decoration-color: initial; display: inline !important; float: none;&quot;&gt;10.0.30.28/30&lt;/span&gt;&#xa;&#xa;" style="endArrow=none;startArrow=none;html=1;rounded=0;entryX=0;entryY=0.5;entryDx=0;entryDy=0;entryPerimeter=0;exitX=1;exitY=0.5;exitDx=0;exitDy=0;exitPerimeter=0;strokeColor=#009900;startFill=0;endFill=0;" parent="1" source="ML1fYuCT1PsFsiq06-86-7" target="ML1fYuCT1PsFsiq06-86-6" edge="1">
          <mxGeometry x="0.1033" y="-1" width="50" height="50" relative="1" as="geometry">
            <mxPoint x="2089" y="1679" as="sourcePoint" />
            <mxPoint x="2139" y="1629" as="targetPoint" />
            <mxPoint as="offset" />
          </mxGeometry>
        </mxCell>
        <mxCell id="ML1fYuCT1PsFsiq06-86-13" value="&#xa;&lt;span style=&quot;color: rgb(0, 0, 0); font-family: Helvetica; font-size: 12px; font-style: normal; font-variant-ligatures: normal; font-variant-caps: normal; font-weight: 400; letter-spacing: normal; orphans: 2; text-align: center; text-indent: 0px; text-transform: none; widows: 2; word-spacing: 0px; -webkit-text-stroke-width: 0px; white-space: normal; background-color: rgb(251, 251, 251); text-decoration-thickness: initial; text-decoration-style: initial; text-decoration-color: initial; display: inline !important; float: none;&quot;&gt;10.0.30.20/30&lt;/span&gt;&#xa;&#xa;" style="endArrow=none;startArrow=none;html=1;rounded=0;entryX=0;entryY=0.5;entryDx=0;entryDy=0;entryPerimeter=0;exitX=1;exitY=0.5;exitDx=0;exitDy=0;exitPerimeter=0;strokeColor=#009900;startFill=0;endFill=0;" parent="1" source="ML1fYuCT1PsFsiq06-86-6" target="ML1fYuCT1PsFsiq06-86-5" edge="1">
          <mxGeometry width="50" height="50" relative="1" as="geometry">
            <mxPoint x="2057" y="1666" as="sourcePoint" />
            <mxPoint x="2222" y="1666" as="targetPoint" />
          </mxGeometry>
        </mxCell>
        <mxCell id="ML1fYuCT1PsFsiq06-86-14" value="&#xa;&lt;span style=&quot;color: rgb(0, 0, 0); font-family: Helvetica; font-size: 12px; font-style: normal; font-variant-ligatures: normal; font-variant-caps: normal; font-weight: 400; letter-spacing: normal; orphans: 2; text-align: center; text-indent: 0px; text-transform: none; widows: 2; word-spacing: 0px; -webkit-text-stroke-width: 0px; white-space: normal; background-color: rgb(251, 251, 251); text-decoration-thickness: initial; text-decoration-style: initial; text-decoration-color: initial; display: inline !important; float: none;&quot;&gt;10.0.30.16/30&lt;/span&gt;&#xa;&#xa;" style="endArrow=none;startArrow=none;html=1;rounded=0;entryX=0.5;entryY=0;entryDx=0;entryDy=0;entryPerimeter=0;exitX=0.5;exitY=1;exitDx=0;exitDy=0;exitPerimeter=0;strokeColor=#009900;startFill=0;endFill=0;" parent="1" source="ML1fYuCT1PsFsiq06-86-4" target="ML1fYuCT1PsFsiq06-86-6" edge="1">
          <mxGeometry width="50" height="50" relative="1" as="geometry">
            <mxPoint x="2067" y="1676" as="sourcePoint" />
            <mxPoint x="2232" y="1676" as="targetPoint" />
          </mxGeometry>
        </mxCell>
        <mxCell id="ML1fYuCT1PsFsiq06-86-15" value="&#xa;&lt;span style=&quot;color: rgb(0, 0, 0); font-family: Helvetica; font-size: 12px; font-style: normal; font-variant-ligatures: normal; font-variant-caps: normal; font-weight: 400; letter-spacing: normal; orphans: 2; text-align: center; text-indent: 0px; text-transform: none; widows: 2; word-spacing: 0px; -webkit-text-stroke-width: 0px; white-space: normal; background-color: rgb(251, 251, 251); text-decoration-thickness: initial; text-decoration-style: initial; text-decoration-color: initial; display: inline !important; float: none;&quot;&gt;10.0.30.8/30&lt;/span&gt;&#xa;&#xa;" style="endArrow=none;startArrow=none;html=1;rounded=0;entryX=0;entryY=0.5;entryDx=0;entryDy=0;entryPerimeter=0;strokeColor=#009900;startFill=0;endFill=0;" parent="1" target="ML1fYuCT1PsFsiq06-86-8" edge="1">
          <mxGeometry x="-0.1184" y="-1" width="50" height="50" relative="1" as="geometry">
            <mxPoint x="1839" y="1658" as="sourcePoint" />
            <mxPoint x="2242" y="1686" as="targetPoint" />
            <mxPoint as="offset" />
          </mxGeometry>
        </mxCell>
        <mxCell id="ML1fYuCT1PsFsiq06-86-16" value="&#xa;&lt;span style=&quot;color: rgb(0, 0, 0); font-family: Helvetica; font-size: 12px; font-style: normal; font-variant-ligatures: normal; font-variant-caps: normal; font-weight: 400; letter-spacing: normal; orphans: 2; text-align: center; text-indent: 0px; text-transform: none; widows: 2; word-spacing: 0px; -webkit-text-stroke-width: 0px; white-space: normal; background-color: rgb(251, 251, 251); text-decoration-thickness: initial; text-decoration-style: initial; text-decoration-color: initial; display: inline !important; float: none;&quot;&gt;10.0.30.4/30&lt;/span&gt;&#xa;&#xa;" style="endArrow=none;startArrow=none;html=1;rounded=0;entryX=0.5;entryY=1;entryDx=0;entryDy=0;entryPerimeter=0;exitX=1;exitY=0.5;exitDx=0;exitDy=0;exitPerimeter=0;strokeColor=#009900;endFill=0;startFill=0;" parent="1" source="ML1fYuCT1PsFsiq06-86-8" target="ML1fYuCT1PsFsiq06-86-5" edge="1">
          <mxGeometry width="50" height="50" relative="1" as="geometry">
            <mxPoint x="2087" y="1696" as="sourcePoint" />
            <mxPoint x="2252" y="1696" as="targetPoint" />
          </mxGeometry>
        </mxCell>
        <mxCell id="ML1fYuCT1PsFsiq06-86-17" value="&#xa;&lt;span style=&quot;color: rgb(0, 0, 0); font-family: Helvetica; font-size: 12px; font-style: normal; font-variant-ligatures: normal; font-variant-caps: normal; font-weight: 400; letter-spacing: normal; orphans: 2; text-align: center; text-indent: 0px; text-transform: none; widows: 2; word-spacing: 0px; -webkit-text-stroke-width: 0px; white-space: normal; background-color: rgb(251, 251, 251); text-decoration-thickness: initial; text-decoration-style: initial; text-decoration-color: initial; display: inline !important; float: none;&quot;&gt;10.0.30.0/30&lt;/span&gt;&#xa;&#xa;" style="endArrow=none;startArrow=none;html=1;rounded=0;entryX=0.5;entryY=0;entryDx=0;entryDy=0;entryPerimeter=0;exitX=1;exitY=0.5;exitDx=0;exitDy=0;exitPerimeter=0;strokeColor=#009900;startFill=0;endFill=0;" parent="1" source="ML1fYuCT1PsFsiq06-86-4" target="ML1fYuCT1PsFsiq06-86-5" edge="1">
          <mxGeometry width="50" height="50" relative="1" as="geometry">
            <mxPoint x="2097" y="1706" as="sourcePoint" />
            <mxPoint x="2262" y="1706" as="targetPoint" />
          </mxGeometry>
        </mxCell>
        <mxCell id="ML1fYuCT1PsFsiq06-86-18" value="&#xa;&lt;span style=&quot;color: rgb(0, 0, 0); font-family: Helvetica; font-size: 12px; font-style: normal; font-variant-ligatures: normal; font-variant-caps: normal; font-weight: 400; letter-spacing: normal; orphans: 2; text-align: center; text-indent: 0px; text-transform: none; widows: 2; word-spacing: 0px; -webkit-text-stroke-width: 0px; white-space: normal; background-color: rgb(251, 251, 251); text-decoration-thickness: initial; text-decoration-style: initial; text-decoration-color: initial; display: inline !important; float: none;&quot;&gt;10.0.30.12/30&lt;/span&gt;&#xa;&#xa;" style="endArrow=none;startArrow=none;html=1;rounded=0;entryX=0;entryY=0.5;entryDx=0;entryDy=0;entryPerimeter=0;exitX=0.88;exitY=0.1;exitDx=0;exitDy=0;exitPerimeter=0;strokeColor=#009900;startFill=0;endFill=0;" parent="1" source="ML1fYuCT1PsFsiq06-86-7" target="ML1fYuCT1PsFsiq06-86-4" edge="1">
          <mxGeometry width="50" height="50" relative="1" as="geometry">
            <mxPoint x="2107" y="1716" as="sourcePoint" />
            <mxPoint x="2272" y="1716" as="targetPoint" />
          </mxGeometry>
        </mxCell>
        <mxCell id="ML1fYuCT1PsFsiq06-86-19" value="&lt;font color=&quot;#ffffff&quot;&gt;P1&lt;/font&gt;" style="text;html=1;align=center;verticalAlign=middle;whiteSpace=wrap;rounded=0;" parent="1" vertex="1">
          <mxGeometry x="2214.5" y="1413" width="60" height="30" as="geometry" />
        </mxCell>
        <mxCell id="ML1fYuCT1PsFsiq06-86-21" value="&lt;font color=&quot;#ffffff&quot;&gt;PE0&lt;/font&gt;" style="text;html=1;align=center;verticalAlign=middle;whiteSpace=wrap;rounded=0;strokeColor=none;shadow=0;" parent="1" vertex="1">
          <mxGeometry x="2623" y="1624" width="60" height="30" as="geometry" />
        </mxCell>
        <mxCell id="ML1fYuCT1PsFsiq06-86-22" value="&lt;font color=&quot;#ffffff&quot;&gt;P2&lt;/font&gt;" style="text;html=1;align=center;verticalAlign=middle;whiteSpace=wrap;rounded=0;" parent="1" vertex="1">
          <mxGeometry x="2212" y="1631" width="60" height="30" as="geometry" />
        </mxCell>
        <mxCell id="ML1fYuCT1PsFsiq06-86-23" value="&lt;font color=&quot;#ffffff&quot;&gt;PE1&lt;/font&gt;" style="text;html=1;align=center;verticalAlign=middle;whiteSpace=wrap;rounded=0;" parent="1" vertex="1">
          <mxGeometry x="2214" y="1886" width="60" height="30" as="geometry" />
        </mxCell>
        <mxCell id="ML1fYuCT1PsFsiq06-86-24" value="&lt;font color=&quot;#ffffff&quot;&gt;PE50&lt;/font&gt;" style="text;html=1;align=center;verticalAlign=middle;whiteSpace=wrap;rounded=0;" parent="1" vertex="1">
          <mxGeometry x="1787" y="1627.75" width="60" height="30" as="geometry" />
        </mxCell>
        <mxCell id="ML1fYuCT1PsFsiq06-86-35" value=".1" style="text;html=1;align=center;verticalAlign=middle;whiteSpace=wrap;rounded=0;" parent="1" vertex="1">
          <mxGeometry x="2276.5" y="1387" width="60" height="30" as="geometry" />
        </mxCell>
        <mxCell id="ML1fYuCT1PsFsiq06-86-36" value=".2" style="text;html=1;align=center;verticalAlign=middle;whiteSpace=wrap;rounded=0;" parent="1" vertex="1">
          <mxGeometry x="2641" y="1578" width="28" height="20" as="geometry" />
        </mxCell>
        <mxCell id="ML1fYuCT1PsFsiq06-86-37" value=".13" style="text;html=1;align=center;verticalAlign=middle;whiteSpace=wrap;rounded=0;" parent="1" vertex="1">
          <mxGeometry x="1839" y="1583.25" width="30" height="18.5" as="geometry" />
        </mxCell>
        <mxCell id="ML1fYuCT1PsFsiq06-86-38" value=".6" style="text;html=1;align=center;verticalAlign=middle;whiteSpace=wrap;rounded=0;" parent="1" vertex="1">
          <mxGeometry x="2293" y="1869.5" width="28" height="16.5" as="geometry" />
        </mxCell>
        <mxCell id="ML1fYuCT1PsFsiq06-86-39" value=".5" style="text;html=1;align=center;verticalAlign=middle;whiteSpace=wrap;rounded=0;" parent="1" vertex="1">
          <mxGeometry x="2590" y="1637.5" width="60" height="30" as="geometry" />
        </mxCell>
        <mxCell id="ML1fYuCT1PsFsiq06-86-40" value=".14" style="text;html=1;align=center;verticalAlign=middle;whiteSpace=wrap;rounded=0;" parent="1" vertex="1">
          <mxGeometry x="2172.5" y="1396.75" width="34.5" height="18" as="geometry" />
        </mxCell>
        <mxCell id="ML1fYuCT1PsFsiq06-86-41" value=".10" style="text;html=1;align=center;verticalAlign=middle;whiteSpace=wrap;rounded=0;" parent="1" vertex="1">
          <mxGeometry x="1799" y="1652" width="60" height="30" as="geometry" />
        </mxCell>
        <mxCell id="ML1fYuCT1PsFsiq06-86-42" value=".9" style="text;html=1;align=center;verticalAlign=middle;whiteSpace=wrap;rounded=0;" parent="1" vertex="1">
          <mxGeometry x="2177.75" y="1886" width="30" height="13" as="geometry" />
        </mxCell>
        <mxCell id="ML1fYuCT1PsFsiq06-86-43" value=".29" style="text;html=1;align=center;verticalAlign=middle;whiteSpace=wrap;rounded=0;" parent="1" vertex="1">
          <mxGeometry x="1859" y="1632.62" width="28" height="12.75" as="geometry" />
        </mxCell>
        <mxCell id="ML1fYuCT1PsFsiq06-86-44" value=".30" style="text;html=1;align=center;verticalAlign=middle;whiteSpace=wrap;rounded=0;" parent="1" vertex="1">
          <mxGeometry x="2177.75" y="1631" width="29.25" height="13.5" as="geometry" />
        </mxCell>
        <mxCell id="ML1fYuCT1PsFsiq06-86-45" value=".18" style="text;html=1;align=center;verticalAlign=middle;whiteSpace=wrap;rounded=0;" parent="1" vertex="1">
          <mxGeometry x="2214" y="1593" width="30" height="10" as="geometry" />
        </mxCell>
        <mxCell id="ML1fYuCT1PsFsiq06-86-46" value=".26" style="text;html=1;align=center;verticalAlign=middle;whiteSpace=wrap;rounded=0;" parent="1" vertex="1">
          <mxGeometry x="2225" y="1654" width="60" height="30" as="geometry" />
        </mxCell>
        <mxCell id="ML1fYuCT1PsFsiq06-86-47" value=".22" style="text;html=1;align=center;verticalAlign=middle;whiteSpace=wrap;rounded=0;" parent="1" vertex="1">
          <mxGeometry x="2269" y="1604" width="60" height="30" as="geometry" />
        </mxCell>
        <mxCell id="ML1fYuCT1PsFsiq06-86-48" value=".25" style="text;html=1;align=center;verticalAlign=middle;whiteSpace=wrap;rounded=0;" parent="1" vertex="1">
          <mxGeometry x="2245" y="1839" width="20" height="20" as="geometry" />
        </mxCell>
        <mxCell id="ML1fYuCT1PsFsiq06-86-49" value=".21" style="text;html=1;align=center;verticalAlign=middle;whiteSpace=wrap;rounded=0;" parent="1" vertex="1">
          <mxGeometry x="2566" y="1601" width="60" height="30" as="geometry" />
        </mxCell>
        <mxCell id="ML1fYuCT1PsFsiq06-86-50" value=".17" style="text;html=1;align=center;verticalAlign=middle;whiteSpace=wrap;rounded=0;" parent="1" vertex="1">
          <mxGeometry x="2217.25" y="1439" width="23.5" height="20" as="geometry" />
        </mxCell>
        <mxCell id="ML1fYuCT1PsFsiq06-86-51" value="MPLS /&amp;nbsp;OSPF / BGP" style="text;html=1;align=center;verticalAlign=middle;whiteSpace=wrap;rounded=0;" parent="1" vertex="1">
          <mxGeometry x="1984.25" y="1391" width="141.5" height="30" as="geometry" />
        </mxCell>
        <mxCell id="ML1fYuCT1PsFsiq06-86-52" value="" style="shape=mxgraph.cisco.routers.router;sketch=0;html=1;pointerEvents=1;dashed=0;fillColor=#036897;strokeColor=#ffffff;strokeWidth=2;verticalLabelPosition=bottom;verticalAlign=top;align=center;outlineConnect=0;" parent="1" vertex="1">
          <mxGeometry x="3013" y="1534" width="78" height="53" as="geometry" />
        </mxCell>
        <mxCell id="ML1fYuCT1PsFsiq06-86-53" value="" style="shape=mxgraph.cisco.routers.router;sketch=0;html=1;pointerEvents=1;dashed=0;fillColor=#036897;strokeColor=#ffffff;strokeWidth=2;verticalLabelPosition=bottom;verticalAlign=top;align=center;outlineConnect=0;" parent="1" vertex="1">
          <mxGeometry x="1392" y="1601" width="78" height="53" as="geometry" />
        </mxCell>
        <mxCell id="ML1fYuCT1PsFsiq06-86-54" value="" style="shape=mxgraph.cisco.routers.router;sketch=0;html=1;pointerEvents=1;dashed=0;fillColor=#036897;strokeColor=#ffffff;strokeWidth=2;verticalLabelPosition=bottom;verticalAlign=top;align=center;outlineConnect=0;" parent="1" vertex="1">
          <mxGeometry x="2203" y="2084" width="78" height="53" as="geometry" />
        </mxCell>
        <mxCell id="ML1fYuCT1PsFsiq06-86-55" value="" style="endArrow=none;html=1;rounded=0;exitX=0.5;exitY=0;exitDx=0;exitDy=0;exitPerimeter=0;entryX=0.5;entryY=1;entryDx=0;entryDy=0;entryPerimeter=0;strokeColor=#FF3333;" parent="1" source="ML1fYuCT1PsFsiq06-86-54" target="ML1fYuCT1PsFsiq06-86-8" edge="1">
          <mxGeometry width="50" height="50" relative="1" as="geometry">
            <mxPoint x="2249" y="1919" as="sourcePoint" />
            <mxPoint x="2299" y="1869" as="targetPoint" />
          </mxGeometry>
        </mxCell>
        <mxCell id="92ba2GRi4zvnJGff0JqZ-8" value="&lt;span style=&quot;font-size: 12px; text-wrap: wrap; background-color: rgb(251, 251, 251);&quot;&gt;10.2.30.0/30&lt;/span&gt;" style="edgeLabel;html=1;align=center;verticalAlign=middle;resizable=0;points=[];" vertex="1" connectable="0" parent="ML1fYuCT1PsFsiq06-86-55">
          <mxGeometry x="0.0096" y="-2" relative="1" as="geometry">
            <mxPoint as="offset" />
          </mxGeometry>
        </mxCell>
        <mxCell id="ML1fYuCT1PsFsiq06-86-59" value="&#xa;&lt;span style=&quot;color: rgb(0, 0, 0); font-family: Helvetica; font-size: 12px; font-style: normal; font-variant-ligatures: normal; font-variant-caps: normal; font-weight: 400; letter-spacing: normal; orphans: 2; text-align: center; text-indent: 0px; text-transform: none; widows: 2; word-spacing: 0px; -webkit-text-stroke-width: 0px; white-space: normal; background-color: rgb(251, 251, 251); text-decoration-thickness: initial; text-decoration-style: initial; text-decoration-color: initial; display: inline !important; float: none;&quot;&gt;10.1.30.0/30&lt;/span&gt;&#xa;&#xa;" style="endArrow=none;html=1;rounded=0;entryX=0;entryY=0.5;entryDx=0;entryDy=0;entryPerimeter=0;exitX=1;exitY=0.5;exitDx=0;exitDy=0;exitPerimeter=0;strokeColor=#FF0000;" parent="1" source="ML1fYuCT1PsFsiq06-86-5" target="ML1fYuCT1PsFsiq06-86-52" edge="1">
          <mxGeometry width="50" height="50" relative="1" as="geometry">
            <mxPoint x="2259" y="1719" as="sourcePoint" />
            <mxPoint x="2309" y="1669" as="targetPoint" />
          </mxGeometry>
        </mxCell>
        <mxCell id="ML1fYuCT1PsFsiq06-86-60" value="" style="endArrow=none;html=1;rounded=0;entryX=0;entryY=0.5;entryDx=0;entryDy=0;entryPerimeter=0;exitX=1;exitY=0.5;exitDx=0;exitDy=0;exitPerimeter=0;fillColor=#ffff88;strokeColor=#FF0000;" parent="1" source="ML1fYuCT1PsFsiq06-86-53" target="ML1fYuCT1PsFsiq06-86-7" edge="1">
          <mxGeometry width="50" height="50" relative="1" as="geometry">
            <mxPoint x="1659" y="1809" as="sourcePoint" />
            <mxPoint x="1709" y="1759" as="targetPoint" />
          </mxGeometry>
        </mxCell>
        <mxCell id="92ba2GRi4zvnJGff0JqZ-7" value="&lt;span style=&quot;font-size: 12px; text-wrap: wrap; background-color: rgb(251, 251, 251);&quot;&gt;10.3.30.0/30&lt;/span&gt;" style="edgeLabel;html=1;align=center;verticalAlign=middle;resizable=0;points=[];" vertex="1" connectable="0" parent="ML1fYuCT1PsFsiq06-86-60">
          <mxGeometry x="0.029" y="-2" relative="1" as="geometry">
            <mxPoint as="offset" />
          </mxGeometry>
        </mxCell>
        <mxCell id="ML1fYuCT1PsFsiq06-86-66" value="&lt;font color=&quot;#ffffff&quot;&gt;CE50&lt;/font&gt;" style="text;html=1;align=center;verticalAlign=middle;whiteSpace=wrap;rounded=0;" parent="1" vertex="1">
          <mxGeometry x="1401" y="1629" width="60" height="30" as="geometry" />
        </mxCell>
        <mxCell id="ML1fYuCT1PsFsiq06-86-68" value="&lt;font color=&quot;#ffffff&quot;&gt;CE00&lt;/font&gt;" style="text;html=1;align=center;verticalAlign=middle;whiteSpace=wrap;rounded=0;" parent="1" vertex="1">
          <mxGeometry x="3023" y="1560.5" width="60" height="30" as="geometry" />
        </mxCell>
        <mxCell id="ML1fYuCT1PsFsiq06-86-69" value="&lt;font color=&quot;#ffffff&quot;&gt;CE1&lt;/font&gt;" style="text;html=1;align=center;verticalAlign=middle;whiteSpace=wrap;rounded=0;" parent="1" vertex="1">
          <mxGeometry x="2211" y="2113" width="60" height="30" as="geometry" />
        </mxCell>
        <mxCell id="ML1fYuCT1PsFsiq06-86-70" value=".5" style="text;html=1;align=center;verticalAlign=middle;whiteSpace=wrap;rounded=0;" parent="1" vertex="1">
          <mxGeometry x="2650" y="1645.37" width="60" height="30" as="geometry" />
        </mxCell>
        <mxCell id="ML1fYuCT1PsFsiq06-86-71" value=".1" style="text;html=1;align=center;verticalAlign=middle;whiteSpace=wrap;rounded=0;" parent="1" vertex="1">
          <mxGeometry x="2683" y="1618.5" width="40" height="18" as="geometry" />
        </mxCell>
        <mxCell id="ML1fYuCT1PsFsiq06-86-72" value=".2" style="text;html=1;align=center;verticalAlign=middle;whiteSpace=wrap;rounded=0;" parent="1" vertex="1">
          <mxGeometry x="2241.5" y="2069" width="27.5" height="15" as="geometry" />
        </mxCell>
        <mxCell id="ML1fYuCT1PsFsiq06-86-73" value=".2" style="text;html=1;align=center;verticalAlign=middle;whiteSpace=wrap;rounded=0;" parent="1" vertex="1">
          <mxGeometry x="2979" y="1537" width="60" height="30" as="geometry" />
        </mxCell>
        <mxCell id="ML1fYuCT1PsFsiq06-86-74" value=".6" style="text;html=1;align=center;verticalAlign=middle;whiteSpace=wrap;rounded=0;" parent="1" vertex="1">
          <mxGeometry x="2976" y="1747" width="60" height="30" as="geometry" />
        </mxCell>
        <mxCell id="ML1fYuCT1PsFsiq06-86-75" value=".1" style="text;html=1;align=center;verticalAlign=middle;whiteSpace=wrap;rounded=0;" parent="1" vertex="1">
          <mxGeometry x="2244" y="1912" width="18" height="17" as="geometry" />
        </mxCell>
        <mxCell id="ML1fYuCT1PsFsiq06-86-76" value="" style="shape=mxgraph.cisco.switches.workgroup_switch;sketch=0;html=1;pointerEvents=1;dashed=0;fillColor=#036897;strokeColor=#ffffff;strokeWidth=2;verticalLabelPosition=bottom;verticalAlign=top;align=center;outlineConnect=0;" parent="1" vertex="1">
          <mxGeometry x="2192" y="2199" width="101" height="50" as="geometry" />
        </mxCell>
        <mxCell id="ML1fYuCT1PsFsiq06-86-77" value="" style="shape=mxgraph.cisco.switches.workgroup_switch;sketch=0;html=1;pointerEvents=1;dashed=0;fillColor=#036897;strokeColor=#ffffff;strokeWidth=2;verticalLabelPosition=bottom;verticalAlign=top;align=center;outlineConnect=0;" parent="1" vertex="1">
          <mxGeometry x="3349" y="1609" width="101" height="50" as="geometry" />
        </mxCell>
        <mxCell id="ML1fYuCT1PsFsiq06-86-78" value="&lt;div&gt;&lt;br&gt;&lt;/div&gt;&lt;div&gt;&lt;br&gt;&lt;/div&gt;&lt;div&gt;&lt;br&gt;&lt;/div&gt;" style="shape=mxgraph.cisco.switches.workgroup_switch;sketch=0;html=1;pointerEvents=1;dashed=0;fillColor=#036897;strokeColor=#ffffff;strokeWidth=2;verticalLabelPosition=bottom;verticalAlign=top;align=center;outlineConnect=0;" parent="1" vertex="1">
          <mxGeometry x="1088" y="1598" width="101" height="50" as="geometry" />
        </mxCell>
        <mxCell id="ML1fYuCT1PsFsiq06-86-80" value="" style="endArrow=none;html=1;rounded=0;entryX=0.16;entryY=0.23;entryDx=0;entryDy=0;entryPerimeter=0;exitX=1;exitY=0.5;exitDx=0;exitDy=0;exitPerimeter=0;" parent="1" source="ML1fYuCT1PsFsiq06-86-52" target="ML1fYuCT1PsFsiq06-86-77" edge="1">
          <mxGeometry width="50" height="50" relative="1" as="geometry">
            <mxPoint x="3039" y="1712.5" as="sourcePoint" />
            <mxPoint x="3089" y="1662.5" as="targetPoint" />
          </mxGeometry>
        </mxCell>
        <mxCell id="92ba2GRi4zvnJGff0JqZ-25" value="Trunk" style="edgeLabel;html=1;align=center;verticalAlign=middle;resizable=0;points=[];" vertex="1" connectable="0" parent="ML1fYuCT1PsFsiq06-86-80">
          <mxGeometry x="0.04" y="-2" relative="1" as="geometry">
            <mxPoint as="offset" />
          </mxGeometry>
        </mxCell>
        <mxCell id="ML1fYuCT1PsFsiq06-86-82" value="" style="shape=mxgraph.cisco.routers.router;sketch=0;html=1;pointerEvents=1;dashed=0;fillColor=#036897;strokeColor=#ffffff;strokeWidth=2;verticalLabelPosition=bottom;verticalAlign=top;align=center;outlineConnect=0;" parent="1" vertex="1">
          <mxGeometry x="3013" y="1727" width="78" height="53" as="geometry" />
        </mxCell>
        <mxCell id="ML1fYuCT1PsFsiq06-86-83" value="" style="endArrow=none;html=1;rounded=0;exitX=1;exitY=0.5;exitDx=0;exitDy=0;exitPerimeter=0;" parent="1" source="ML1fYuCT1PsFsiq06-86-82" target="ML1fYuCT1PsFsiq06-86-77" edge="1">
          <mxGeometry width="50" height="50" relative="1" as="geometry">
            <mxPoint x="3029" y="1682.5" as="sourcePoint" />
            <mxPoint x="3079" y="1632.5" as="targetPoint" />
          </mxGeometry>
        </mxCell>
        <mxCell id="92ba2GRi4zvnJGff0JqZ-26" value="Trunk" style="edgeLabel;html=1;align=center;verticalAlign=middle;resizable=0;points=[];" vertex="1" connectable="0" parent="ML1fYuCT1PsFsiq06-86-83">
          <mxGeometry x="0.018" relative="1" as="geometry">
            <mxPoint as="offset" />
          </mxGeometry>
        </mxCell>
        <mxCell id="ML1fYuCT1PsFsiq06-86-84" value="&#xa;&lt;span style=&quot;color: rgb(0, 0, 0); font-family: Helvetica; font-size: 12px; font-style: normal; font-variant-ligatures: normal; font-variant-caps: normal; font-weight: 400; letter-spacing: normal; orphans: 2; text-align: center; text-indent: 0px; text-transform: none; widows: 2; word-spacing: 0px; -webkit-text-stroke-width: 0px; white-space: normal; background-color: rgb(251, 251, 251); text-decoration-thickness: initial; text-decoration-style: initial; text-decoration-color: initial; display: inline !important; float: none;&quot;&gt;10.1.30.4&lt;/span&gt;&lt;span style=&quot;forced-color-adjust: none; color: rgb(0, 0, 0); font-family: Helvetica; font-size: 12px; font-style: normal; font-variant-ligatures: normal; font-variant-caps: normal; font-weight: 400; letter-spacing: normal; orphans: 2; text-align: center; text-indent: 0px; text-transform: none; widows: 2; word-spacing: 0px; -webkit-text-stroke-width: 0px; white-space: normal; background-color: initial; text-decoration-thickness: initial; text-decoration-style: initial; text-decoration-color: initial;&quot;&gt;/30&lt;/span&gt;&#xa;&#xa;" style="endArrow=none;html=1;rounded=0;entryX=0.88;entryY=0.9;entryDx=0;entryDy=0;entryPerimeter=0;exitX=0;exitY=0.5;exitDx=0;exitDy=0;exitPerimeter=0;strokeColor=#FF0000;" parent="1" source="ML1fYuCT1PsFsiq06-86-82" target="ML1fYuCT1PsFsiq06-86-5" edge="1">
          <mxGeometry width="50" height="50" relative="1" as="geometry">
            <mxPoint x="2839" y="1699" as="sourcePoint" />
            <mxPoint x="2889" y="1649" as="targetPoint" />
          </mxGeometry>
        </mxCell>
        <mxCell id="ML1fYuCT1PsFsiq06-86-85" value=".2" style="text;html=1;align=center;verticalAlign=middle;whiteSpace=wrap;rounded=0;" parent="1" vertex="1">
          <mxGeometry x="1449" y="1624" width="60" height="30" as="geometry" />
        </mxCell>
        <mxCell id="ML1fYuCT1PsFsiq06-86-86" value=".1" style="text;html=1;align=center;verticalAlign=middle;whiteSpace=wrap;rounded=0;" parent="1" vertex="1">
          <mxGeometry x="1739" y="1624" width="60" height="30" as="geometry" />
        </mxCell>
        <mxCell id="ML1fYuCT1PsFsiq06-86-90" value="Trunk" style="endArrow=none;html=1;rounded=0;entryX=0;entryY=0.5;entryDx=0;entryDy=0;entryPerimeter=0;exitX=0.98;exitY=0.5;exitDx=0;exitDy=0;exitPerimeter=0;" parent="1" source="ML1fYuCT1PsFsiq06-86-78" target="ML1fYuCT1PsFsiq06-86-53" edge="1">
          <mxGeometry width="50" height="50" relative="1" as="geometry">
            <mxPoint x="1249" y="1759" as="sourcePoint" />
            <mxPoint x="1299" y="1709" as="targetPoint" />
          </mxGeometry>
        </mxCell>
        <mxCell id="ML1fYuCT1PsFsiq06-86-91" value="" style="endArrow=none;html=1;rounded=0;entryX=0.5;entryY=1;entryDx=0;entryDy=0;entryPerimeter=0;exitX=0.5;exitY=0;exitDx=0;exitDy=0;exitPerimeter=0;" parent="1" source="ML1fYuCT1PsFsiq06-86-76" target="ML1fYuCT1PsFsiq06-86-54" edge="1">
          <mxGeometry width="50" height="50" relative="1" as="geometry">
            <mxPoint x="2089" y="2199" as="sourcePoint" />
            <mxPoint x="2139" y="2149" as="targetPoint" />
          </mxGeometry>
        </mxCell>
        <mxCell id="ML1fYuCT1PsFsiq06-86-92" value="" style="shape=mxgraph.cisco.computers_and_peripherals.pc;html=1;pointerEvents=1;dashed=0;fillColor=#036897;strokeColor=#ffffff;strokeWidth=2;verticalLabelPosition=bottom;verticalAlign=top;align=center;outlineConnect=0;" parent="1" vertex="1">
          <mxGeometry x="2488" y="2199" width="78" height="70" as="geometry" />
        </mxCell>
        <mxCell id="ML1fYuCT1PsFsiq06-86-94" value="" style="shape=mxgraph.cisco.computers_and_peripherals.pc;html=1;pointerEvents=1;dashed=0;fillColor=#036897;strokeColor=#ffffff;strokeWidth=2;verticalLabelPosition=bottom;verticalAlign=top;align=center;outlineConnect=0;" parent="1" vertex="1">
          <mxGeometry x="2293" y="2409" width="78" height="70" as="geometry" />
        </mxCell>
        <mxCell id="ML1fYuCT1PsFsiq06-86-95" value="AP WIFI" style="image;html=1;image=img/lib/clip_art/networking/Wireless_Router_128x128.png" parent="1" vertex="1">
          <mxGeometry x="1879" y="2299" width="80" height="80" as="geometry" />
        </mxCell>
        <mxCell id="ML1fYuCT1PsFsiq06-86-97" value="VOIP" style="image;aspect=fixed;perimeter=ellipsePerimeter;html=1;align=center;shadow=0;dashed=0;spacingTop=3;image=img/lib/active_directory/phone.svg;" parent="1" vertex="1">
          <mxGeometry x="2139" y="2449" width="50" height="39.5" as="geometry" />
        </mxCell>
        <mxCell id="ML1fYuCT1PsFsiq06-86-98" value="VLAN Ventes" style="endArrow=none;html=1;rounded=0;fillColor=#d80073;strokeColor=#000000;" parent="1" source="ML1fYuCT1PsFsiq06-86-94" target="ML1fYuCT1PsFsiq06-86-76" edge="1">
          <mxGeometry width="50" height="50" relative="1" as="geometry">
            <mxPoint x="2169" y="2349" as="sourcePoint" />
            <mxPoint x="2219" y="2299" as="targetPoint" />
          </mxGeometry>
        </mxCell>
        <mxCell id="ML1fYuCT1PsFsiq06-86-99" value="VLAN Voix" style="endArrow=none;html=1;rounded=0;fillColor=#dae8fc;strokeColor=#000000;" parent="1" source="ML1fYuCT1PsFsiq06-86-97" target="ML1fYuCT1PsFsiq06-86-76" edge="1">
          <mxGeometry width="50" height="50" relative="1" as="geometry">
            <mxPoint x="2179" y="2359" as="sourcePoint" />
            <mxPoint x="2229" y="2309" as="targetPoint" />
          </mxGeometry>
        </mxCell>
        <mxCell id="ML1fYuCT1PsFsiq06-86-101" value="VLAN Direction" style="endArrow=none;html=1;rounded=0;fillColor=#008a00;strokeColor=#000000;" parent="1" source="ML1fYuCT1PsFsiq06-86-76" target="ML1fYuCT1PsFsiq06-86-92" edge="1">
          <mxGeometry width="50" height="50" relative="1" as="geometry">
            <mxPoint x="2199" y="2379" as="sourcePoint" />
            <mxPoint x="2249" y="2329" as="targetPoint" />
          </mxGeometry>
        </mxCell>
        <mxCell id="ML1fYuCT1PsFsiq06-86-102" value="VLAN Wifi" style="endArrow=none;html=1;rounded=0;fillColor=#a20025;strokeColor=#000000;fontColor=#000000;" parent="1" source="ML1fYuCT1PsFsiq06-86-95" target="ML1fYuCT1PsFsiq06-86-76" edge="1">
          <mxGeometry width="50" height="50" relative="1" as="geometry">
            <mxPoint x="2209" y="2389" as="sourcePoint" />
            <mxPoint x="2259" y="2339" as="targetPoint" />
          </mxGeometry>
        </mxCell>
        <mxCell id="ML1fYuCT1PsFsiq06-86-104" value="&lt;font color=&quot;#ff3333&quot;&gt;Magasin 1&lt;/font&gt;" style="text;strokeColor=none;fillColor=none;html=1;fontSize=24;fontStyle=1;verticalAlign=middle;align=center;" parent="1" vertex="1">
          <mxGeometry x="1820" y="2118" width="100" height="40" as="geometry" />
        </mxCell>
        <mxCell id="ML1fYuCT1PsFsiq06-86-113" value="Client" style="shape=mxgraph.cisco.computers_and_peripherals.pc;html=1;pointerEvents=1;dashed=0;fillColor=#036897;strokeColor=#ffffff;strokeWidth=2;verticalLabelPosition=bottom;verticalAlign=top;align=center;outlineConnect=0;" parent="1" vertex="1">
          <mxGeometry x="681" y="1700" width="78" height="70" as="geometry" />
        </mxCell>
        <mxCell id="ML1fYuCT1PsFsiq06-86-115" value="Client" style="shape=mxgraph.cisco.computers_and_peripherals.pc;html=1;pointerEvents=1;dashed=0;fillColor=#036897;strokeColor=#ffffff;strokeWidth=2;verticalLabelPosition=bottom;verticalAlign=top;align=center;outlineConnect=0;" parent="1" vertex="1">
          <mxGeometry x="681" y="1569" width="78" height="70" as="geometry" />
        </mxCell>
        <mxCell id="ML1fYuCT1PsFsiq06-86-116" value="AP WIFI PUBLIQUE" style="image;html=1;image=img/lib/clip_art/networking/Wireless_Router_128x128.png" parent="1" vertex="1">
          <mxGeometry x="659" y="1352.5" width="80" height="80" as="geometry" />
        </mxCell>
        <mxCell id="ML1fYuCT1PsFsiq06-86-117" value="VOIP" style="image;aspect=fixed;perimeter=ellipsePerimeter;html=1;align=center;shadow=0;dashed=0;spacingTop=3;image=img/lib/active_directory/phone.svg;" parent="1" vertex="1">
          <mxGeometry x="854" y="1793" width="50" height="39.5" as="geometry" />
        </mxCell>
        <mxCell id="ML1fYuCT1PsFsiq06-86-118" value="VLAN Ventes" style="endArrow=none;html=1;rounded=0;fillColor=#d80073;strokeColor=#000000;" parent="1" source="ML1fYuCT1PsFsiq06-86-115" target="ML1fYuCT1PsFsiq06-86-78" edge="1">
          <mxGeometry width="50" height="50" relative="1" as="geometry">
            <mxPoint x="709" y="1569" as="sourcePoint" />
            <mxPoint x="750.7065217391305" y="1469" as="targetPoint" />
          </mxGeometry>
        </mxCell>
        <mxCell id="ML1fYuCT1PsFsiq06-86-119" value="VLAN Voix" style="endArrow=none;html=1;rounded=0;fillColor=#dae8fc;strokeColor=#000000;" parent="1" source="ML1fYuCT1PsFsiq06-86-117" target="ML1fYuCT1PsFsiq06-86-78" edge="1">
          <mxGeometry width="50" height="50" relative="1" as="geometry">
            <mxPoint x="719" y="1579" as="sourcePoint" />
            <mxPoint x="781.8387589013223" y="1469" as="targetPoint" />
          </mxGeometry>
        </mxCell>
        <mxCell id="ML1fYuCT1PsFsiq06-86-121" value="VLAN Direction" style="endArrow=none;html=1;rounded=0;" parent="1" source="ML1fYuCT1PsFsiq06-86-78" target="ML1fYuCT1PsFsiq06-86-113" edge="1">
          <mxGeometry width="50" height="50" relative="1" as="geometry">
            <mxPoint x="833" y="1445.775043936731" as="sourcePoint" />
            <mxPoint x="789" y="1549" as="targetPoint" />
          </mxGeometry>
        </mxCell>
        <mxCell id="ML1fYuCT1PsFsiq06-86-124" value="&lt;font color=&quot;#ff3333&quot;&gt;Showroom&lt;/font&gt;" style="text;strokeColor=none;fillColor=none;html=1;fontSize=24;fontStyle=1;verticalAlign=middle;align=center;" parent="1" vertex="1">
          <mxGeometry x="1309" y="1349" width="100" height="40" as="geometry" />
        </mxCell>
        <mxCell id="ML1fYuCT1PsFsiq06-86-131" value="Portail captif&lt;br&gt;(pfsense)" style="image;aspect=fixed;perimeter=ellipsePerimeter;html=1;align=center;shadow=0;dashed=0;spacingTop=3;image=img/lib/active_directory/firewall.svg;" parent="1" vertex="1">
          <mxGeometry x="889" y="1464.5" width="30.5" height="50" as="geometry" />
        </mxCell>
        <mxCell id="ML1fYuCT1PsFsiq06-86-132" value="VLAN Wifi publique" style="endArrow=none;html=1;rounded=0;" parent="1" source="ML1fYuCT1PsFsiq06-86-131" target="ML1fYuCT1PsFsiq06-86-78" edge="1">
          <mxGeometry width="50" height="50" relative="1" as="geometry">
            <mxPoint x="805" y="1487.5" as="sourcePoint" />
            <mxPoint x="1105" y="1560.5" as="targetPoint" />
          </mxGeometry>
        </mxCell>
        <mxCell id="ML1fYuCT1PsFsiq06-86-133" value="192.168.50.0/24" style="endArrow=none;html=1;rounded=0;entryX=0;entryY=0.5;entryDx=0;entryDy=0;exitX=1;exitY=0.75;exitDx=0;exitDy=0;" parent="1" source="ML1fYuCT1PsFsiq06-86-116" target="ML1fYuCT1PsFsiq06-86-131" edge="1">
          <mxGeometry width="50" height="50" relative="1" as="geometry">
            <mxPoint x="559" y="1439" as="sourcePoint" />
            <mxPoint x="609" y="1389" as="targetPoint" />
          </mxGeometry>
        </mxCell>
        <mxCell id="ML1fYuCT1PsFsiq06-86-144" value="Téléphonie&lt;br&gt;FreePBX" style="image;aspect=fixed;perimeter=ellipsePerimeter;html=1;align=center;shadow=0;dashed=0;spacingTop=3;image=img/lib/active_directory/generic_server.svg;" parent="1" vertex="1">
          <mxGeometry x="3589" y="1342.5" width="44.8" height="80" as="geometry" />
        </mxCell>
        <mxCell id="ML1fYuCT1PsFsiq06-86-146" value="AP WIFI" style="image;html=1;image=img/lib/clip_art/networking/Wireless_Router_128x128.png" parent="1" vertex="1">
          <mxGeometry x="3379" y="1837.75" width="80" height="80" as="geometry" />
        </mxCell>
        <mxCell id="ML1fYuCT1PsFsiq06-86-147" value="" style="image;aspect=fixed;perimeter=ellipsePerimeter;html=1;align=center;shadow=0;dashed=0;spacingTop=3;image=img/lib/active_directory/phone.svg;" parent="1" vertex="1">
          <mxGeometry x="3374.5" y="1359" width="50" height="39.5" as="geometry" />
        </mxCell>
        <mxCell id="ML1fYuCT1PsFsiq06-86-152" value="&lt;font color=&quot;#ff3333&quot;&gt;Siège&lt;/font&gt;" style="text;strokeColor=none;fillColor=none;html=1;fontSize=24;fontStyle=1;verticalAlign=middle;align=center;" parent="1" vertex="1">
          <mxGeometry x="3055" y="1322.5" width="100" height="40" as="geometry" />
        </mxCell>
        <mxCell id="ML1fYuCT1PsFsiq06-86-160" value="&lt;span style=&quot;color: rgb(76, 0, 153);&quot;&gt;VLANs.253&lt;/span&gt;" style="text;html=1;align=center;verticalAlign=middle;whiteSpace=wrap;rounded=0;" parent="1" vertex="1">
          <mxGeometry x="3104" y="1539" width="40" height="28" as="geometry" />
        </mxCell>
        <mxCell id="ML1fYuCT1PsFsiq06-86-162" value="" style="endArrow=none;dashed=1;html=1;rounded=0;strokeColor=#FF66B3;" parent="1" edge="1">
          <mxGeometry width="50" height="50" relative="1" as="geometry">
            <mxPoint x="3056" y="1727" as="sourcePoint" />
            <mxPoint x="3056" y="1587" as="targetPoint" />
            <Array as="points">
              <mxPoint x="3056" y="1657" />
            </Array>
          </mxGeometry>
        </mxCell>
        <mxCell id="ML1fYuCT1PsFsiq06-86-163" value="" style="endArrow=none;dashed=1;html=1;dashPattern=1 3;strokeWidth=2;rounded=0;strokeColor=#FF66B3;" parent="1" edge="1">
          <mxGeometry width="50" height="50" relative="1" as="geometry">
            <mxPoint x="3061" y="1642.5" as="sourcePoint" />
            <mxPoint x="3361" y="1635.2246790299569" as="targetPoint" />
          </mxGeometry>
        </mxCell>
        <mxCell id="ML1fYuCT1PsFsiq06-86-164" value="VLANs.254&lt;div&gt;IP flottante&lt;/div&gt;" style="text;html=1;align=center;verticalAlign=middle;whiteSpace=wrap;rounded=0;fillColor=#d80073;fontColor=#ffffff;strokeColor=#A50040;" parent="1" vertex="1">
          <mxGeometry x="3060" y="1652" width="79" height="30" as="geometry" />
        </mxCell>
        <mxCell id="ML1fYuCT1PsFsiq06-86-165" value="VLAN Voix" style="endArrow=none;html=1;rounded=0;labelBackgroundColor=#FFFFFF;fillColor=#dae8fc;strokeColor=#000000;" parent="1" source="ML1fYuCT1PsFsiq06-86-77" target="ML1fYuCT1PsFsiq06-86-147" edge="1">
          <mxGeometry width="50" height="50" relative="1" as="geometry">
            <mxPoint x="3229" y="1542.5" as="sourcePoint" />
            <mxPoint x="3279" y="1492.5" as="targetPoint" />
          </mxGeometry>
        </mxCell>
        <mxCell id="ML1fYuCT1PsFsiq06-86-166" value="VLAN Voix" style="endArrow=none;html=1;rounded=0;fillColor=#dae8fc;strokeColor=#000000;" parent="1" source="ML1fYuCT1PsFsiq06-86-77" target="ML1fYuCT1PsFsiq06-86-144" edge="1">
          <mxGeometry width="50" height="50" relative="1" as="geometry">
            <mxPoint x="3239" y="1552.5" as="sourcePoint" />
            <mxPoint x="3289" y="1502.5" as="targetPoint" />
          </mxGeometry>
        </mxCell>
        <mxCell id="ML1fYuCT1PsFsiq06-86-167" value="AD / DNS / DHCP / RADIUS / WinRDS" style="image;aspect=fixed;perimeter=ellipsePerimeter;html=1;align=center;shadow=0;dashed=0;spacingTop=3;image=img/lib/active_directory/generic_server.svg;" parent="1" vertex="1">
          <mxGeometry x="3751.9" y="1443.5" width="44.8" height="80" as="geometry" />
        </mxCell>
        <mxCell id="ML1fYuCT1PsFsiq06-86-171" value="Messagerie / Nextcloud&lt;br&gt;Stockage et applications" style="aspect=fixed;sketch=0;html=1;dashed=0;whitespace=wrap;verticalLabelPosition=bottom;verticalAlign=top;fillColor=#2875E2;strokeColor=#ffffff;points=[[0.005,0.63,0],[0.1,0.2,0],[0.9,0.2,0],[0.5,0,0],[0.995,0.63,0],[0.72,0.99,0],[0.5,1,0],[0.28,0.99,0]];shape=mxgraph.kubernetes.icon2;prIcon=api" parent="1" vertex="1">
          <mxGeometry x="3742.8" y="1624.5" width="50" height="48" as="geometry" />
        </mxCell>
        <mxCell id="ML1fYuCT1PsFsiq06-86-175" value="" style="endArrow=none;html=1;rounded=0;strokeColor=#FFCC99;" parent="1" source="ML1fYuCT1PsFsiq06-86-77" target="ML1fYuCT1PsFsiq06-86-167" edge="1">
          <mxGeometry width="50" height="50" relative="1" as="geometry">
            <mxPoint x="3239" y="2042.5" as="sourcePoint" />
            <mxPoint x="3269" y="1982.5" as="targetPoint" />
          </mxGeometry>
        </mxCell>
        <mxCell id="92ba2GRi4zvnJGff0JqZ-27" value="VLAN Défaut" style="edgeLabel;html=1;align=center;verticalAlign=middle;resizable=0;points=[];" vertex="1" connectable="0" parent="ML1fYuCT1PsFsiq06-86-175">
          <mxGeometry x="-0.1829" y="-2" relative="1" as="geometry">
            <mxPoint as="offset" />
          </mxGeometry>
        </mxCell>
        <mxCell id="ML1fYuCT1PsFsiq06-86-177" value="&lt;font&gt;VLAN Wifi&lt;/font&gt;" style="endArrow=none;html=1;rounded=0;labelBackgroundColor=#FFFFFF;fontColor=#000000;strokeColor=#000000;exitX=0.25;exitY=0;exitDx=0;exitDy=0;" parent="1" source="ML1fYuCT1PsFsiq06-86-146" target="ML1fYuCT1PsFsiq06-86-77" edge="1">
          <mxGeometry width="50" height="50" relative="1" as="geometry">
            <mxPoint x="3259" y="2062.5" as="sourcePoint" />
            <mxPoint x="3289" y="2002.5" as="targetPoint" />
          </mxGeometry>
        </mxCell>
        <mxCell id="ML1fYuCT1PsFsiq06-86-178" value="" style="endArrow=none;html=1;rounded=0;entryX=0.1;entryY=0.2;entryDx=0;entryDy=0;entryPerimeter=0;exitX=0.87;exitY=0.74;exitDx=0;exitDy=0;exitPerimeter=0;strokeColor=#FFCC99;" parent="1" source="ML1fYuCT1PsFsiq06-86-77" target="ML1fYuCT1PsFsiq06-86-171" edge="1">
          <mxGeometry width="50" height="50" relative="1" as="geometry">
            <mxPoint x="3269" y="2072.5" as="sourcePoint" />
            <mxPoint x="3299" y="2012.5" as="targetPoint" />
          </mxGeometry>
        </mxCell>
        <mxCell id="92ba2GRi4zvnJGff0JqZ-28" value="VLAN Défaut" style="edgeLabel;html=1;align=center;verticalAlign=middle;resizable=0;points=[];" vertex="1" connectable="0" parent="ML1fYuCT1PsFsiq06-86-178">
          <mxGeometry x="-0.0931" y="-2" relative="1" as="geometry">
            <mxPoint as="offset" />
          </mxGeometry>
        </mxCell>
        <mxCell id="ML1fYuCT1PsFsiq06-86-182" value="Serveur MQTT" style="outlineConnect=0;dashed=0;verticalLabelPosition=bottom;verticalAlign=top;align=center;html=1;shape=mxgraph.aws3.mqtt_protocol;fillColor=#5294CF;gradientColor=none;" parent="1" vertex="1">
          <mxGeometry x="3742.8" y="1787" width="63" height="66" as="geometry" />
        </mxCell>
        <mxCell id="ML1fYuCT1PsFsiq06-86-185" value="&lt;font color=&quot;#ff66b3&quot; style=&quot;font-size: 14px;&quot;&gt;VRRP&lt;/font&gt;" style="text;html=1;fontSize=24;fontStyle=1;verticalAlign=middle;align=center;" parent="1" vertex="1">
          <mxGeometry x="3067" y="1819" width="100" height="40" as="geometry" />
        </mxCell>
        <mxCell id="ML1fYuCT1PsFsiq06-86-187" value="VLANs" style="swimlane;fontStyle=0;childLayout=stackLayout;horizontal=1;startSize=30;horizontalStack=0;resizeParent=1;resizeParentMax=0;resizeLast=0;collapsible=1;marginBottom=0;whiteSpace=wrap;html=1;fillColor=#FFFFFF;" parent="1" vertex="1">
          <mxGeometry x="1181.5" y="1677.5" width="235.5" height="210" as="geometry">
            <mxRectangle x="1420" y="933" width="80" height="30" as="alternateBounds" />
          </mxGeometry>
        </mxCell>
        <mxCell id="ML1fYuCT1PsFsiq06-86-188" value="10 : Direction - 200.30.10.0/24" style="text;strokeColor=none;fillColor=none;align=left;verticalAlign=middle;spacingLeft=4;spacingRight=4;overflow=hidden;points=[[0,0.5],[1,0.5]];portConstraint=eastwest;rotatable=0;whiteSpace=wrap;html=1;" parent="ML1fYuCT1PsFsiq06-86-187" vertex="1">
          <mxGeometry y="30" width="235.5" height="30" as="geometry" />
        </mxCell>
        <mxCell id="ML1fYuCT1PsFsiq06-86-190" value="&lt;span style=&quot;color: rgb(0, 0, 0); font-family: Helvetica; font-size: 12px; font-style: normal; font-variant-ligatures: normal; font-variant-caps: normal; font-weight: 400; letter-spacing: normal; orphans: 2; text-align: left; text-indent: 0px; text-transform: none; widows: 2; word-spacing: 0px; -webkit-text-stroke-width: 0px; white-space: normal; background-color: rgb(251, 251, 251); text-decoration-thickness: initial; text-decoration-style: initial; text-decoration-color: initial; display: inline !important; float: none;&quot;&gt;20 : Ventes - 200.30.2&lt;/span&gt;0.0/24" style="text;strokeColor=none;fillColor=none;align=left;verticalAlign=middle;spacingLeft=4;spacingRight=4;overflow=hidden;points=[[0,0.5],[1,0.5]];portConstraint=eastwest;rotatable=0;whiteSpace=wrap;html=1;" parent="ML1fYuCT1PsFsiq06-86-187" vertex="1">
          <mxGeometry y="60" width="235.5" height="30" as="geometry" />
        </mxCell>
        <mxCell id="ML1fYuCT1PsFsiq06-86-189" value="&lt;span style=&quot;color: rgb(0, 0, 0); font-family: Helvetica; font-size: 12px; font-style: normal; font-variant-ligatures: normal; font-variant-caps: normal; font-weight: 400; letter-spacing: normal; orphans: 2; text-align: left; text-indent: 0px; text-transform: none; widows: 2; word-spacing: 0px; -webkit-text-stroke-width: 0px; white-space: normal; background-color: rgb(251, 251, 251); text-decoration-thickness: initial; text-decoration-style: initial; text-decoration-color: initial; display: inline !important; float: none;&quot;&gt;30 : Voix - 200.30.30.0/24&lt;/span&gt;" style="text;strokeColor=none;fillColor=none;align=left;verticalAlign=middle;spacingLeft=4;spacingRight=4;overflow=hidden;points=[[0,0.5],[1,0.5]];portConstraint=eastwest;rotatable=0;whiteSpace=wrap;html=1;" parent="ML1fYuCT1PsFsiq06-86-187" vertex="1">
          <mxGeometry y="90" width="235.5" height="30" as="geometry" />
        </mxCell>
        <mxCell id="ML1fYuCT1PsFsiq06-86-191" value="40 : Wifi - 200.30.40.0/24" style="text;strokeColor=none;fillColor=none;align=left;verticalAlign=middle;spacingLeft=4;spacingRight=4;overflow=hidden;points=[[0,0.5],[1,0.5]];portConstraint=eastwest;rotatable=0;whiteSpace=wrap;html=1;" parent="ML1fYuCT1PsFsiq06-86-187" vertex="1">
          <mxGeometry y="120" width="235.5" height="30" as="geometry" />
        </mxCell>
        <mxCell id="hlPLC92axH5KbFpEZ22y-7" value="50 : Wifi publique - 200.30.50.0/24" style="text;strokeColor=none;fillColor=none;align=left;verticalAlign=middle;spacingLeft=4;spacingRight=4;overflow=hidden;points=[[0,0.5],[1,0.5]];portConstraint=eastwest;rotatable=0;whiteSpace=wrap;html=1;" parent="ML1fYuCT1PsFsiq06-86-187" vertex="1">
          <mxGeometry y="150" width="235.5" height="30" as="geometry" />
        </mxCell>
        <mxCell id="ML1fYuCT1PsFsiq06-86-192" value="99 : Gestion - 200.30.99.0/24" style="text;strokeColor=none;fillColor=none;align=left;verticalAlign=middle;spacingLeft=4;spacingRight=4;overflow=hidden;points=[[0,0.5],[1,0.5]];portConstraint=eastwest;rotatable=0;whiteSpace=wrap;html=1;" parent="ML1fYuCT1PsFsiq06-86-187" vertex="1">
          <mxGeometry y="180" width="235.5" height="30" as="geometry" />
        </mxCell>
        <mxCell id="ML1fYuCT1PsFsiq06-86-193" value="VLANs" style="swimlane;fontStyle=0;childLayout=stackLayout;horizontal=1;startSize=30;horizontalStack=0;resizeParent=1;resizeParentMax=0;resizeLast=0;collapsible=1;marginBottom=0;whiteSpace=wrap;html=1;fillColor=#FFFFFF;" parent="1" vertex="1">
          <mxGeometry x="2434" y="2339" width="192" height="170" as="geometry" />
        </mxCell>
        <mxCell id="ML1fYuCT1PsFsiq06-86-194" value="10 : Direction - 130.30.10.0/24" style="text;strokeColor=none;fillColor=none;align=left;verticalAlign=middle;spacingLeft=4;spacingRight=4;overflow=hidden;points=[[0,0.5],[1,0.5]];portConstraint=eastwest;rotatable=0;whiteSpace=wrap;html=1;" parent="ML1fYuCT1PsFsiq06-86-193" vertex="1">
          <mxGeometry y="30" width="192" height="30" as="geometry" />
        </mxCell>
        <mxCell id="ML1fYuCT1PsFsiq06-86-195" value="&lt;span style=&quot;color: rgb(0, 0, 0); font-family: Helvetica; font-size: 12px; font-style: normal; font-variant-ligatures: normal; font-variant-caps: normal; font-weight: 400; letter-spacing: normal; orphans: 2; text-align: left; text-indent: 0px; text-transform: none; widows: 2; word-spacing: 0px; -webkit-text-stroke-width: 0px; white-space: normal; background-color: rgb(251, 251, 251); text-decoration-thickness: initial; text-decoration-style: initial; text-decoration-color: initial; display: inline !important; float: none;&quot;&gt;20 : Ventes - 130.30.2&lt;/span&gt;0.0/24" style="text;strokeColor=none;fillColor=none;align=left;verticalAlign=middle;spacingLeft=4;spacingRight=4;overflow=hidden;points=[[0,0.5],[1,0.5]];portConstraint=eastwest;rotatable=0;whiteSpace=wrap;html=1;" parent="ML1fYuCT1PsFsiq06-86-193" vertex="1">
          <mxGeometry y="60" width="192" height="30" as="geometry" />
        </mxCell>
        <mxCell id="ML1fYuCT1PsFsiq06-86-196" value="&lt;span style=&quot;color: rgb(0, 0, 0); font-family: Helvetica; font-size: 12px; font-style: normal; font-variant-ligatures: normal; font-variant-caps: normal; font-weight: 400; letter-spacing: normal; orphans: 2; text-align: left; text-indent: 0px; text-transform: none; widows: 2; word-spacing: 0px; -webkit-text-stroke-width: 0px; white-space: normal; background-color: rgb(251, 251, 251); text-decoration-thickness: initial; text-decoration-style: initial; text-decoration-color: initial; display: inline !important; float: none;&quot;&gt;30 : Voix - 130.30.30.0/24&lt;/span&gt;" style="text;strokeColor=none;fillColor=none;align=left;verticalAlign=middle;spacingLeft=4;spacingRight=4;overflow=hidden;points=[[0,0.5],[1,0.5]];portConstraint=eastwest;rotatable=0;whiteSpace=wrap;html=1;" parent="ML1fYuCT1PsFsiq06-86-193" vertex="1">
          <mxGeometry y="90" width="192" height="30" as="geometry" />
        </mxCell>
        <mxCell id="ML1fYuCT1PsFsiq06-86-197" value="40 : Wifi - 130.30.40.0/24" style="text;strokeColor=none;fillColor=none;align=left;verticalAlign=middle;spacingLeft=4;spacingRight=4;overflow=hidden;points=[[0,0.5],[1,0.5]];portConstraint=eastwest;rotatable=0;whiteSpace=wrap;html=1;" parent="ML1fYuCT1PsFsiq06-86-193" vertex="1">
          <mxGeometry y="120" width="192" height="30" as="geometry" />
        </mxCell>
        <mxCell id="ML1fYuCT1PsFsiq06-86-198" value="99 : Gestion - 130.30.99.0/24" style="text;strokeColor=none;fillColor=none;align=left;verticalAlign=middle;spacingLeft=4;spacingRight=4;overflow=hidden;points=[[0,0.5],[1,0.5]];portConstraint=eastwest;rotatable=0;whiteSpace=wrap;html=1;" parent="ML1fYuCT1PsFsiq06-86-193" vertex="1">
          <mxGeometry y="150" width="192" height="20" as="geometry" />
        </mxCell>
        <mxCell id="ML1fYuCT1PsFsiq06-86-206" value="&lt;font style=&quot;font-size: 72px;&quot;&gt;Network&lt;/font&gt;&lt;div style=&quot;&quot;&gt;&lt;span style=&quot;font-size: 72px; background-color: initial;&quot;&gt;Beerok&lt;/span&gt;&lt;/div&gt;" style="text;html=1;fontSize=24;fontStyle=1;verticalAlign=middle;align=center;" parent="1" vertex="1">
          <mxGeometry x="1470" y="1079" width="440" height="190" as="geometry" />
        </mxCell>
        <mxCell id="ML1fYuCT1PsFsiq06-86-207" value="&lt;font color=&quot;#ffffff&quot;&gt;CE01&lt;/font&gt;" style="text;html=1;align=center;verticalAlign=middle;whiteSpace=wrap;rounded=0;" parent="1" vertex="1">
          <mxGeometry x="3019" y="1755.5" width="60" height="30" as="geometry" />
        </mxCell>
        <mxCell id="ML1fYuCT1PsFsiq06-86-210" value="&lt;div&gt;&lt;font color=&quot;#4c0099&quot;&gt;VLANs.254&lt;/font&gt;&lt;/div&gt;" style="text;html=1;align=center;verticalAlign=middle;whiteSpace=wrap;rounded=0;" parent="1" vertex="1">
          <mxGeometry x="1332" y="1622" width="60" height="30" as="geometry" />
        </mxCell>
        <mxCell id="ML1fYuCT1PsFsiq06-86-211" value="&lt;font style=&quot;font-size: 18px;&quot;&gt;10.0.30.0/27&lt;/font&gt;" style="text;strokeColor=none;fillColor=none;html=1;fontSize=24;fontStyle=1;verticalAlign=middle;align=center;" parent="1" vertex="1">
          <mxGeometry x="2004" y="1399.5" width="100" height="40" as="geometry" />
        </mxCell>
        <mxCell id="ML1fYuCT1PsFsiq06-86-212" value="&lt;font style=&quot;font-size: 18px;&quot;&gt;100.30.0.0/16&lt;/font&gt;" style="text;strokeColor=none;fillColor=none;html=1;fontSize=24;fontStyle=1;verticalAlign=middle;align=center;" parent="1" vertex="1">
          <mxGeometry x="3069" y="1352.5" width="100" height="40" as="geometry" />
        </mxCell>
        <mxCell id="ML1fYuCT1PsFsiq06-86-213" value="&lt;font style=&quot;font-size: 18px;&quot;&gt;130.30.0.0/16&lt;/font&gt;" style="text;strokeColor=none;fillColor=none;html=1;fontSize=24;fontStyle=1;verticalAlign=middle;align=center;" parent="1" vertex="1">
          <mxGeometry x="1811" y="2149" width="100" height="40" as="geometry" />
        </mxCell>
        <mxCell id="ML1fYuCT1PsFsiq06-86-214" value="&lt;font style=&quot;font-size: 18px;&quot;&gt;200.30.0.0/16&lt;/font&gt;" style="text;strokeColor=none;fillColor=none;html=1;fontSize=24;fontStyle=1;verticalAlign=middle;align=center;" parent="1" vertex="1">
          <mxGeometry x="1319" y="1377" width="100" height="40" as="geometry" />
        </mxCell>
        <mxCell id="ML1fYuCT1PsFsiq06-86-216" value="&lt;font color=&quot;#3333ff&quot; style=&quot;font-size: 18px;&quot;&gt;&lt;b&gt;AS : 65010&lt;/b&gt;&lt;/font&gt;" style="text;html=1;align=center;verticalAlign=middle;whiteSpace=wrap;rounded=0;" parent="1" vertex="1">
          <mxGeometry x="3055" y="1392.5" width="124" height="30" as="geometry" />
        </mxCell>
        <mxCell id="ML1fYuCT1PsFsiq06-86-217" value="&lt;font color=&quot;#3333ff&quot; style=&quot;font-size: 18px;&quot;&gt;&lt;b&gt;AS : 65020&lt;/b&gt;&lt;/font&gt;" style="text;html=1;align=center;verticalAlign=middle;whiteSpace=wrap;rounded=0;" parent="1" vertex="1">
          <mxGeometry x="1799" y="2179" width="124" height="30" as="geometry" />
        </mxCell>
        <mxCell id="ML1fYuCT1PsFsiq06-86-218" value="&lt;font color=&quot;#3333ff&quot; style=&quot;font-size: 18px;&quot;&gt;&lt;b&gt;AS : 65030&lt;/b&gt;&lt;/font&gt;" style="text;html=1;align=center;verticalAlign=middle;whiteSpace=wrap;rounded=0;" parent="1" vertex="1">
          <mxGeometry x="1307" y="1414.75" width="124" height="30" as="geometry" />
        </mxCell>
        <mxCell id="aHmDazJYVTbdfqCPaKrC-3" value="&lt;font style=&quot;font-size: 15px;&quot;&gt;&lt;b style=&quot;font-size: 15px;&quot;&gt;AS : 65000&lt;/b&gt;&lt;/font&gt;" style="text;html=1;align=center;verticalAlign=middle;whiteSpace=wrap;rounded=0;fontSize=15;fontColor=#3333FF;" parent="1" vertex="1">
          <mxGeometry x="1992" y="1422.5" width="124" height="30" as="geometry" />
        </mxCell>
        <mxCell id="hlPLC92axH5KbFpEZ22y-1" value=".253" style="text;html=1;align=center;verticalAlign=middle;whiteSpace=wrap;rounded=0;" parent="1" vertex="1">
          <mxGeometry x="899" y="1474.5" width="60" height="30" as="geometry" />
        </mxCell>
        <mxCell id="hlPLC92axH5KbFpEZ22y-2" value=".1" style="text;html=1;align=center;verticalAlign=middle;whiteSpace=wrap;rounded=0;" parent="1" vertex="1">
          <mxGeometry x="849" y="1454.5" width="60" height="30" as="geometry" />
        </mxCell>
        <mxCell id="hlPLC92axH5KbFpEZ22y-3" value=".254" style="text;html=1;align=center;verticalAlign=middle;whiteSpace=wrap;rounded=0;" parent="1" vertex="1">
          <mxGeometry x="723" y="1390" width="60" height="30" as="geometry" />
        </mxCell>
        <mxCell id="hlPLC92axH5KbFpEZ22y-9" value="AP WIFI" style="image;html=1;image=img/lib/clip_art/networking/Wireless_Router_128x128.png" parent="1" vertex="1">
          <mxGeometry x="1008" y="1349" width="80" height="80" as="geometry" />
        </mxCell>
        <mxCell id="hlPLC92axH5KbFpEZ22y-10" value="VLAN Wifi" style="endArrow=none;html=1;rounded=0;fillColor=#a20025;strokeColor=#000000;" parent="1" source="ML1fYuCT1PsFsiq06-86-78" target="hlPLC92axH5KbFpEZ22y-9" edge="1">
          <mxGeometry width="50" height="50" relative="1" as="geometry">
            <mxPoint x="1109" y="1542.5" as="sourcePoint" />
            <mxPoint x="1159" y="1492.5" as="targetPoint" />
          </mxGeometry>
        </mxCell>
        <mxCell id="hlPLC92axH5KbFpEZ22y-12" value=".1" style="text;html=1;align=center;verticalAlign=middle;whiteSpace=wrap;rounded=0;" parent="1" vertex="1">
          <mxGeometry x="3701" y="1471.5" width="60" height="30" as="geometry" />
        </mxCell>
        <mxCell id="hlPLC92axH5KbFpEZ22y-13" value=".10" style="text;html=1;align=center;verticalAlign=middle;whiteSpace=wrap;rounded=0;" parent="1" vertex="1">
          <mxGeometry x="3711" y="1607.5" width="60" height="30" as="geometry" />
        </mxCell>
        <mxCell id="hlPLC92axH5KbFpEZ22y-14" value="" style="endArrow=none;html=1;rounded=0;strokeColor=#FFCC99;" parent="1" source="ML1fYuCT1PsFsiq06-86-182" target="ML1fYuCT1PsFsiq06-86-77" edge="1">
          <mxGeometry width="50" height="50" relative="1" as="geometry">
            <mxPoint x="3813" y="1778.5" as="sourcePoint" />
            <mxPoint x="3799" y="1791.6848906560635" as="targetPoint" />
            <Array as="points">
              <mxPoint x="3769" y="1812.5" />
              <mxPoint x="3559" y="1742.5" />
              <mxPoint x="3499" y="1712.5" />
            </Array>
          </mxGeometry>
        </mxCell>
        <mxCell id="92ba2GRi4zvnJGff0JqZ-29" value="VLAN Défaut" style="edgeLabel;html=1;align=center;verticalAlign=middle;resizable=0;points=[];" vertex="1" connectable="0" parent="hlPLC92axH5KbFpEZ22y-14">
          <mxGeometry x="-0.0168" relative="1" as="geometry">
            <mxPoint as="offset" />
          </mxGeometry>
        </mxCell>
        <mxCell id="hlPLC92axH5KbFpEZ22y-16" value=".9" style="text;html=1;align=center;verticalAlign=middle;whiteSpace=wrap;rounded=0;" parent="1" vertex="1">
          <mxGeometry x="3691.9" y="1787" width="60" height="30" as="geometry" />
        </mxCell>
        <mxCell id="BADXoSpPG7AcEESZwScs-4" value="&#xa;&lt;span style=&quot;color: rgb(0, 0, 0); font-family: Helvetica; font-size: 12px; font-style: normal; font-variant-ligatures: normal; font-variant-caps: normal; font-weight: 400; letter-spacing: normal; orphans: 2; text-align: center; text-indent: 0px; text-transform: none; widows: 2; word-spacing: 0px; -webkit-text-stroke-width: 0px; white-space: normal; background-color: rgb(251, 251, 251); text-decoration-thickness: initial; text-decoration-style: initial; text-decoration-color: initial; display: inline !important; float: none;&quot;&gt;10.0.30.24/30&lt;/span&gt;&#xa;&#xa;" style="endArrow=none;html=1;rounded=0;fillColor=#d5e8d4;strokeColor=#009900;" parent="1" edge="1">
          <mxGeometry width="50" height="50" relative="1" as="geometry">
            <mxPoint x="2242.0000000000005" y="1857" as="sourcePoint" />
            <mxPoint x="2242" y="1675" as="targetPoint" />
          </mxGeometry>
        </mxCell>
        <mxCell id="BADXoSpPG7AcEESZwScs-8" value="&lt;div&gt;&lt;font color=&quot;#4c0099&quot;&gt;VLANs.254&lt;/font&gt;&lt;/div&gt;" style="text;html=1;align=center;verticalAlign=middle;whiteSpace=wrap;rounded=0;" parent="1" vertex="1">
          <mxGeometry x="2174" y="2137" width="60" height="30" as="geometry" />
        </mxCell>
        <mxCell id="BADXoSpPG7AcEESZwScs-9" value="" style="endArrow=none;dashed=1;html=1;dashPattern=1 3;strokeWidth=2;rounded=0;exitX=0.625;exitY=0.2;exitDx=0;exitDy=0;exitPerimeter=0;entryX=0.474;entryY=1.009;entryDx=0;entryDy=0;entryPerimeter=0;" parent="1" source="ML1fYuCT1PsFsiq06-86-3" target="BADXoSpPG7AcEESZwScs-10" edge="1">
          <mxGeometry width="50" height="50" relative="1" as="geometry">
            <mxPoint x="2259" y="1249" as="sourcePoint" />
            <mxPoint x="2359" y="1119" as="targetPoint" />
          </mxGeometry>
        </mxCell>
        <mxCell id="BADXoSpPG7AcEESZwScs-10" value="" style="rounded=0;whiteSpace=wrap;html=1;fillColor=none;" parent="1" vertex="1">
          <mxGeometry x="1959" y="770" width="840" height="519" as="geometry" />
        </mxCell>
        <mxCell id="BADXoSpPG7AcEESZwScs-11" value="" style="shape=mxgraph.cisco.routers.router;sketch=0;html=1;pointerEvents=1;dashed=0;fillColor=#036897;strokeColor=#ffffff;strokeWidth=2;verticalLabelPosition=bottom;verticalAlign=top;align=center;outlineConnect=0;" parent="1" vertex="1">
          <mxGeometry x="2318" y="1255" width="78" height="53" as="geometry" />
        </mxCell>
        <mxCell id="BADXoSpPG7AcEESZwScs-12" value="&lt;font color=&quot;#ffffff&quot;&gt;CE01&lt;/font&gt;" style="text;html=1;align=center;verticalAlign=middle;whiteSpace=wrap;rounded=0;" parent="1" vertex="1">
          <mxGeometry x="2326" y="1284" width="60" height="30" as="geometry" />
        </mxCell>
        <mxCell id="BADXoSpPG7AcEESZwScs-14" value="" style="shape=mxgraph.cisco.switches.workgroup_switch;sketch=0;html=1;pointerEvents=1;dashed=0;fillColor=#036897;strokeColor=#ffffff;strokeWidth=2;verticalLabelPosition=bottom;verticalAlign=top;align=center;outlineConnect=0;" parent="1" vertex="1">
          <mxGeometry x="2306.5" y="1050" width="101" height="50" as="geometry" />
        </mxCell>
        <mxCell id="BADXoSpPG7AcEESZwScs-15" value="" style="endArrow=none;html=1;rounded=0;entryX=0.5;entryY=1;entryDx=0;entryDy=0;entryPerimeter=0;exitX=0.5;exitY=0.98;exitDx=0;exitDy=0;exitPerimeter=0;" parent="1" source="BADXoSpPG7AcEESZwScs-14" edge="1">
          <mxGeometry width="50" height="50" relative="1" as="geometry">
            <mxPoint x="2402" y="737" as="sourcePoint" />
            <mxPoint x="2356.5" y="1255" as="targetPoint" />
          </mxGeometry>
        </mxCell>
        <mxCell id="BADXoSpPG7AcEESZwScs-16" value="" style="shape=mxgraph.cisco.computers_and_peripherals.pc;html=1;pointerEvents=1;dashed=0;fillColor=#036897;strokeColor=#ffffff;strokeWidth=2;verticalLabelPosition=bottom;verticalAlign=top;align=center;outlineConnect=0;" parent="1" vertex="1">
          <mxGeometry x="2488" y="820" width="78" height="70" as="geometry" />
        </mxCell>
        <mxCell id="BADXoSpPG7AcEESZwScs-17" value="" style="shape=mxgraph.cisco.computers_and_peripherals.pc;html=1;pointerEvents=1;dashed=0;fillColor=#036897;strokeColor=#ffffff;strokeWidth=2;verticalLabelPosition=bottom;verticalAlign=top;align=center;outlineConnect=0;" parent="1" vertex="1">
          <mxGeometry x="2548" y="950" width="78" height="70" as="geometry" />
        </mxCell>
        <mxCell id="BADXoSpPG7AcEESZwScs-18" value="AP WIFI" style="image;html=1;image=img/lib/clip_art/networking/Wireless_Router_128x128.png" parent="1" vertex="1">
          <mxGeometry x="2079" y="900" width="80" height="80" as="geometry" />
        </mxCell>
        <mxCell id="BADXoSpPG7AcEESZwScs-19" value="VOIP" style="image;aspect=fixed;perimeter=ellipsePerimeter;html=1;align=center;shadow=0;dashed=0;spacingTop=3;image=img/lib/active_directory/phone.svg;" parent="1" vertex="1">
          <mxGeometry x="2262" y="835.25" width="50" height="39.5" as="geometry" />
        </mxCell>
        <mxCell id="BADXoSpPG7AcEESZwScs-20" value="VLAN Ventes" style="endArrow=none;html=1;rounded=0;fillColor=#d80073;strokeColor=#000000;" parent="1" source="BADXoSpPG7AcEESZwScs-17" target="BADXoSpPG7AcEESZwScs-14" edge="1">
          <mxGeometry width="50" height="50" relative="1" as="geometry">
            <mxPoint x="2329" y="940" as="sourcePoint" />
            <mxPoint x="2379" y="890" as="targetPoint" />
          </mxGeometry>
        </mxCell>
        <mxCell id="BADXoSpPG7AcEESZwScs-21" value="VLAN Voix" style="endArrow=none;html=1;rounded=0;fillColor=#dae8fc;strokeColor=#000000;" parent="1" source="BADXoSpPG7AcEESZwScs-19" target="BADXoSpPG7AcEESZwScs-14" edge="1">
          <mxGeometry width="50" height="50" relative="1" as="geometry">
            <mxPoint x="2339" y="950" as="sourcePoint" />
            <mxPoint x="2389" y="900" as="targetPoint" />
          </mxGeometry>
        </mxCell>
        <mxCell id="BADXoSpPG7AcEESZwScs-22" value="VLAN Direction" style="endArrow=none;html=1;rounded=0;fillColor=#008a00;strokeColor=#000000;" parent="1" source="BADXoSpPG7AcEESZwScs-14" target="BADXoSpPG7AcEESZwScs-16" edge="1">
          <mxGeometry width="50" height="50" relative="1" as="geometry">
            <mxPoint x="2359" y="970" as="sourcePoint" />
            <mxPoint x="2409" y="920" as="targetPoint" />
          </mxGeometry>
        </mxCell>
        <mxCell id="BADXoSpPG7AcEESZwScs-23" value="VLAN Wifi" style="endArrow=none;html=1;rounded=0;fillColor=#a20025;strokeColor=#000000;" parent="1" source="BADXoSpPG7AcEESZwScs-18" target="BADXoSpPG7AcEESZwScs-14" edge="1">
          <mxGeometry width="50" height="50" relative="1" as="geometry">
            <mxPoint x="2369" y="980" as="sourcePoint" />
            <mxPoint x="2419" y="930" as="targetPoint" />
          </mxGeometry>
        </mxCell>
        <mxCell id="BADXoSpPG7AcEESZwScs-24" value="&lt;font color=&quot;#ff3333&quot;&gt;Magasin 2-48&lt;/font&gt;" style="text;strokeColor=none;fillColor=none;html=1;fontSize=24;fontStyle=1;verticalAlign=middle;align=center;" parent="1" vertex="1">
          <mxGeometry x="1994.75" y="779" width="100" height="40" as="geometry" />
        </mxCell>
        <mxCell id="BADXoSpPG7AcEESZwScs-25" value="VLANs" style="swimlane;fontStyle=0;childLayout=stackLayout;horizontal=1;startSize=30;horizontalStack=0;resizeParent=1;resizeParentMax=0;resizeLast=0;collapsible=1;marginBottom=0;whiteSpace=wrap;html=1;fillColor=#FFFFFF;" parent="1" vertex="1">
          <mxGeometry x="2599" y="1110" width="192" height="170" as="geometry" />
        </mxCell>
        <mxCell id="BADXoSpPG7AcEESZwScs-26" value="10 : Direction - 1xx&lt;span style=&quot;background-color: initial;&quot;&gt;.30.10.0/24&lt;/span&gt;" style="text;strokeColor=none;fillColor=none;align=left;verticalAlign=middle;spacingLeft=4;spacingRight=4;overflow=hidden;points=[[0,0.5],[1,0.5]];portConstraint=eastwest;rotatable=0;whiteSpace=wrap;html=1;" parent="BADXoSpPG7AcEESZwScs-25" vertex="1">
          <mxGeometry y="30" width="192" height="30" as="geometry" />
        </mxCell>
        <mxCell id="BADXoSpPG7AcEESZwScs-27" value="&lt;span style=&quot;color: rgb(0, 0, 0); font-family: Helvetica; font-size: 12px; font-style: normal; font-variant-ligatures: normal; font-variant-caps: normal; font-weight: 400; letter-spacing: normal; orphans: 2; text-align: left; text-indent: 0px; text-transform: none; widows: 2; word-spacing: 0px; -webkit-text-stroke-width: 0px; white-space: normal; background-color: rgb(251, 251, 251); text-decoration-thickness: initial; text-decoration-style: initial; text-decoration-color: initial; display: inline !important; float: none;&quot;&gt;20 : Ventes - 1xx.30.2&lt;/span&gt;0.0/24" style="text;strokeColor=none;fillColor=none;align=left;verticalAlign=middle;spacingLeft=4;spacingRight=4;overflow=hidden;points=[[0,0.5],[1,0.5]];portConstraint=eastwest;rotatable=0;whiteSpace=wrap;html=1;" parent="BADXoSpPG7AcEESZwScs-25" vertex="1">
          <mxGeometry y="60" width="192" height="30" as="geometry" />
        </mxCell>
        <mxCell id="BADXoSpPG7AcEESZwScs-28" value="&lt;span style=&quot;color: rgb(0, 0, 0); font-family: Helvetica; font-size: 12px; font-style: normal; font-variant-ligatures: normal; font-variant-caps: normal; font-weight: 400; letter-spacing: normal; orphans: 2; text-align: left; text-indent: 0px; text-transform: none; widows: 2; word-spacing: 0px; -webkit-text-stroke-width: 0px; white-space: normal; background-color: rgb(251, 251, 251); text-decoration-thickness: initial; text-decoration-style: initial; text-decoration-color: initial; display: inline !important; float: none;&quot;&gt;30 : Voix - 1xx.30.30.0/24&lt;/span&gt;" style="text;strokeColor=none;fillColor=none;align=left;verticalAlign=middle;spacingLeft=4;spacingRight=4;overflow=hidden;points=[[0,0.5],[1,0.5]];portConstraint=eastwest;rotatable=0;whiteSpace=wrap;html=1;" parent="BADXoSpPG7AcEESZwScs-25" vertex="1">
          <mxGeometry y="90" width="192" height="30" as="geometry" />
        </mxCell>
        <mxCell id="BADXoSpPG7AcEESZwScs-29" value="40 : Wifi - 1xx.30.40.0/24" style="text;strokeColor=none;fillColor=none;align=left;verticalAlign=middle;spacingLeft=4;spacingRight=4;overflow=hidden;points=[[0,0.5],[1,0.5]];portConstraint=eastwest;rotatable=0;whiteSpace=wrap;html=1;" parent="BADXoSpPG7AcEESZwScs-25" vertex="1">
          <mxGeometry y="120" width="192" height="30" as="geometry" />
        </mxCell>
        <mxCell id="BADXoSpPG7AcEESZwScs-30" value="99 : Gestion - 1xx.30.99.0/24" style="text;strokeColor=none;fillColor=none;align=left;verticalAlign=middle;spacingLeft=4;spacingRight=4;overflow=hidden;points=[[0,0.5],[1,0.5]];portConstraint=eastwest;rotatable=0;whiteSpace=wrap;html=1;" parent="BADXoSpPG7AcEESZwScs-25" vertex="1">
          <mxGeometry y="150" width="192" height="20" as="geometry" />
        </mxCell>
        <mxCell id="BADXoSpPG7AcEESZwScs-31" value="&lt;font style=&quot;font-size: 18px;&quot;&gt;131.30.0.0./16 - 177.30.0.0./16&amp;nbsp;&lt;/font&gt;" style="text;strokeColor=none;fillColor=none;html=1;fontSize=24;fontStyle=1;verticalAlign=middle;align=center;" parent="1" vertex="1">
          <mxGeometry x="1994.75" y="810" width="198" height="40" as="geometry" />
        </mxCell>
        <mxCell id="BADXoSpPG7AcEESZwScs-32" value="&lt;font color=&quot;#3333ff&quot; style=&quot;font-size: 18px;&quot;&gt;&lt;b&gt;AS : 65031-65078&lt;/b&gt;&lt;/font&gt;" style="text;html=1;align=center;verticalAlign=middle;whiteSpace=wrap;rounded=0;" parent="1" vertex="1">
          <mxGeometry x="1969" y="850" width="150" height="30" as="geometry" />
        </mxCell>
        <mxCell id="BADXoSpPG7AcEESZwScs-33" value="&lt;div&gt;&lt;font color=&quot;#4c0099&quot;&gt;VLANs.254&lt;/font&gt;&lt;/div&gt;" style="text;html=1;align=center;verticalAlign=middle;whiteSpace=wrap;rounded=0;" parent="1" vertex="1">
          <mxGeometry x="2293" y="1225" width="60" height="30" as="geometry" />
        </mxCell>
        <mxCell id="92ba2GRi4zvnJGff0JqZ-17" value="VLANs" style="swimlane;fontStyle=0;childLayout=stackLayout;horizontal=1;startSize=30;horizontalStack=0;resizeParent=1;resizeParentMax=0;resizeLast=0;collapsible=1;marginBottom=0;whiteSpace=wrap;html=1;fillColor=#FFFFFF;" vertex="1" parent="1">
          <mxGeometry x="3489.8" y="1849" width="192" height="200" as="geometry" />
        </mxCell>
        <mxCell id="92ba2GRi4zvnJGff0JqZ-23" value="1 : Défaut - 100.30.1.0/24" style="text;strokeColor=none;fillColor=none;align=left;verticalAlign=middle;spacingLeft=4;spacingRight=4;overflow=hidden;points=[[0,0.5],[1,0.5]];portConstraint=eastwest;rotatable=0;whiteSpace=wrap;html=1;" vertex="1" parent="92ba2GRi4zvnJGff0JqZ-17">
          <mxGeometry y="30" width="192" height="30" as="geometry" />
        </mxCell>
        <mxCell id="92ba2GRi4zvnJGff0JqZ-18" value="10 : Direction - 100.30.10.0/24" style="text;strokeColor=none;fillColor=none;align=left;verticalAlign=middle;spacingLeft=4;spacingRight=4;overflow=hidden;points=[[0,0.5],[1,0.5]];portConstraint=eastwest;rotatable=0;whiteSpace=wrap;html=1;" vertex="1" parent="92ba2GRi4zvnJGff0JqZ-17">
          <mxGeometry y="60" width="192" height="30" as="geometry" />
        </mxCell>
        <mxCell id="92ba2GRi4zvnJGff0JqZ-19" value="&lt;span style=&quot;color: rgb(0, 0, 0); font-family: Helvetica; font-size: 12px; font-style: normal; font-variant-ligatures: normal; font-variant-caps: normal; font-weight: 400; letter-spacing: normal; orphans: 2; text-align: left; text-indent: 0px; text-transform: none; widows: 2; word-spacing: 0px; -webkit-text-stroke-width: 0px; white-space: normal; background-color: rgb(251, 251, 251); text-decoration-thickness: initial; text-decoration-style: initial; text-decoration-color: initial; display: inline !important; float: none;&quot;&gt;20 : Ventes - 100.30.2&lt;/span&gt;0.0/24" style="text;strokeColor=none;fillColor=none;align=left;verticalAlign=middle;spacingLeft=4;spacingRight=4;overflow=hidden;points=[[0,0.5],[1,0.5]];portConstraint=eastwest;rotatable=0;whiteSpace=wrap;html=1;" vertex="1" parent="92ba2GRi4zvnJGff0JqZ-17">
          <mxGeometry y="90" width="192" height="30" as="geometry" />
        </mxCell>
        <mxCell id="92ba2GRi4zvnJGff0JqZ-20" value="&lt;span style=&quot;color: rgb(0, 0, 0); font-family: Helvetica; font-size: 12px; font-style: normal; font-variant-ligatures: normal; font-variant-caps: normal; font-weight: 400; letter-spacing: normal; orphans: 2; text-align: left; text-indent: 0px; text-transform: none; widows: 2; word-spacing: 0px; -webkit-text-stroke-width: 0px; white-space: normal; background-color: rgb(251, 251, 251); text-decoration-thickness: initial; text-decoration-style: initial; text-decoration-color: initial; display: inline !important; float: none;&quot;&gt;30 : Voix - 100.30.30.0/24&lt;/span&gt;" style="text;strokeColor=none;fillColor=none;align=left;verticalAlign=middle;spacingLeft=4;spacingRight=4;overflow=hidden;points=[[0,0.5],[1,0.5]];portConstraint=eastwest;rotatable=0;whiteSpace=wrap;html=1;" vertex="1" parent="92ba2GRi4zvnJGff0JqZ-17">
          <mxGeometry y="120" width="192" height="30" as="geometry" />
        </mxCell>
        <mxCell id="92ba2GRi4zvnJGff0JqZ-21" value="40 : Wifi - 100.30.40.0/24" style="text;strokeColor=none;fillColor=none;align=left;verticalAlign=middle;spacingLeft=4;spacingRight=4;overflow=hidden;points=[[0,0.5],[1,0.5]];portConstraint=eastwest;rotatable=0;whiteSpace=wrap;html=1;" vertex="1" parent="92ba2GRi4zvnJGff0JqZ-17">
          <mxGeometry y="150" width="192" height="30" as="geometry" />
        </mxCell>
        <mxCell id="92ba2GRi4zvnJGff0JqZ-22" value="99 : Gestion - 100.30.99.0/24" style="text;strokeColor=none;fillColor=none;align=left;verticalAlign=middle;spacingLeft=4;spacingRight=4;overflow=hidden;points=[[0,0.5],[1,0.5]];portConstraint=eastwest;rotatable=0;whiteSpace=wrap;html=1;" vertex="1" parent="92ba2GRi4zvnJGff0JqZ-17">
          <mxGeometry y="180" width="192" height="20" as="geometry" />
        </mxCell>
        <mxCell id="92ba2GRi4zvnJGff0JqZ-24" value=".1" style="text;html=1;align=center;verticalAlign=middle;resizable=0;points=[];autosize=1;strokeColor=none;fillColor=none;" vertex="1" parent="1">
          <mxGeometry x="3567" y="1387" width="30" height="30" as="geometry" />
        </mxCell>
        <mxCell id="92ba2GRi4zvnJGff0JqZ-30" value=".250" style="text;html=1;align=center;verticalAlign=middle;resizable=0;points=[];autosize=1;strokeColor=none;fillColor=none;" vertex="1" parent="1">
          <mxGeometry x="3394" y="1809" width="50" height="30" as="geometry" />
        </mxCell>
        <mxCell id="92ba2GRi4zvnJGff0JqZ-31" value="&lt;span style=&quot;color: rgb(76, 0, 153);&quot;&gt;VLANs.252&lt;/span&gt;" style="text;html=1;align=center;verticalAlign=middle;whiteSpace=wrap;rounded=0;" vertex="1" parent="1">
          <mxGeometry x="3104" y="1750" width="40" height="28" as="geometry" />
        </mxCell>
        <mxCell id="92ba2GRi4zvnJGff0JqZ-32" value=".253" style="text;html=1;align=center;verticalAlign=middle;resizable=0;points=[];autosize=1;strokeColor=none;fillColor=none;" vertex="1" parent="1">
          <mxGeometry x="1945" y="2321" width="50" height="30" as="geometry" />
        </mxCell>
        <mxCell id="92ba2GRi4zvnJGff0JqZ-33" value="" style="endArrow=classic;html=1;rounded=0;" edge="1" parent="1">
          <mxGeometry width="50" height="50" relative="1" as="geometry">
            <mxPoint x="1891" y="1614.75" as="sourcePoint" />
            <mxPoint x="2191" y="1449" as="targetPoint" />
          </mxGeometry>
        </mxCell>
        <mxCell id="92ba2GRi4zvnJGff0JqZ-34" value="Tunnel&lt;br&gt;MPLS 1" style="edgeLabel;html=1;align=center;verticalAlign=middle;resizable=0;points=[];" vertex="1" connectable="0" parent="92ba2GRi4zvnJGff0JqZ-33">
          <mxGeometry x="0.4018" relative="1" as="geometry">
            <mxPoint x="-97" y="54" as="offset" />
          </mxGeometry>
        </mxCell>
        <mxCell id="92ba2GRi4zvnJGff0JqZ-36" value="" style="edgeStyle=none;orthogonalLoop=1;jettySize=auto;html=1;rounded=0;" edge="1" parent="1">
          <mxGeometry width="100" relative="1" as="geometry">
            <mxPoint x="2299" y="1439" as="sourcePoint" />
            <mxPoint x="2589" y="1589" as="targetPoint" />
            <Array as="points" />
          </mxGeometry>
        </mxCell>
        <mxCell id="92ba2GRi4zvnJGff0JqZ-37" value="Tunnel&lt;br&gt;MPLS 1" style="edgeLabel;html=1;align=center;verticalAlign=middle;resizable=0;points=[];" vertex="1" connectable="0" parent="92ba2GRi4zvnJGff0JqZ-36">
          <mxGeometry x="-0.3736" y="1" relative="1" as="geometry">
            <mxPoint x="69" y="50" as="offset" />
          </mxGeometry>
        </mxCell>
        <mxCell id="92ba2GRi4zvnJGff0JqZ-38" value="" style="edgeStyle=none;orthogonalLoop=1;jettySize=auto;html=1;rounded=0;" edge="1" parent="1">
          <mxGeometry width="100" relative="1" as="geometry">
            <mxPoint x="2182" y="1647.5" as="sourcePoint" />
            <mxPoint x="1887" y="1647.5" as="targetPoint" />
            <Array as="points" />
          </mxGeometry>
        </mxCell>
        <mxCell id="92ba2GRi4zvnJGff0JqZ-39" value="Tunnel&lt;br&gt;MPLS 2" style="edgeLabel;html=1;align=center;verticalAlign=middle;resizable=0;points=[];" vertex="1" connectable="0" parent="92ba2GRi4zvnJGff0JqZ-38">
          <mxGeometry x="-0.0346" y="-2" relative="1" as="geometry">
            <mxPoint as="offset" />
          </mxGeometry>
        </mxCell>
        <mxCell id="92ba2GRi4zvnJGff0JqZ-40" value="" style="edgeStyle=none;orthogonalLoop=1;jettySize=auto;html=1;rounded=0;" edge="1" parent="1">
          <mxGeometry width="100" relative="1" as="geometry">
            <mxPoint x="2586.5" y="1643" as="sourcePoint" />
            <mxPoint x="2306.5" y="1643" as="targetPoint" />
            <Array as="points" />
          </mxGeometry>
        </mxCell>
        <mxCell id="92ba2GRi4zvnJGff0JqZ-41" value="Tunnel&lt;br&gt;MPLS 2" style="edgeLabel;html=1;align=center;verticalAlign=middle;resizable=0;points=[];" vertex="1" connectable="0" parent="92ba2GRi4zvnJGff0JqZ-40">
          <mxGeometry x="-0.0346" y="-2" relative="1" as="geometry">
            <mxPoint as="offset" />
          </mxGeometry>
        </mxCell>
        <mxCell id="92ba2GRi4zvnJGff0JqZ-43" value="&lt;font color=&quot;#ff3333&quot;&gt;Liaison BGP&lt;/font&gt;&lt;br&gt;&lt;font color=&quot;#009900&quot;&gt;Liaison OSPF&lt;/font&gt;" style="rounded=1;whiteSpace=wrap;html=1;" vertex="1" parent="1">
          <mxGeometry x="2494" y="1421.5" width="90" height="46.5" as="geometry" />
        </mxCell>
        <mxCell id="92ba2GRi4zvnJGff0JqZ-45" value=".253" style="text;html=1;align=center;verticalAlign=middle;resizable=0;points=[];autosize=1;strokeColor=none;fillColor=none;" vertex="1" parent="1">
          <mxGeometry x="2153" y="940" width="50" height="30" as="geometry" />
        </mxCell>
        <mxCell id="92ba2GRi4zvnJGff0JqZ-46" value=".253" style="text;html=1;align=center;verticalAlign=middle;resizable=0;points=[];autosize=1;strokeColor=none;fillColor=none;" vertex="1" parent="1">
          <mxGeometry x="1059" y="1413" width="50" height="30" as="geometry" />
        </mxCell>
      </root>
    </mxGraphModel>
  </diagram>
</mxfile>
